999
"DXF R12 Output" (www.mydxf.blogspot.com)
 0 
SECTION
 2 
HEADER
 9 
$ACADVER
 1 
AC1009
 9 
$EXTMIN
 10 
 0 
 20 
 0 
 9 
$EXTMAX
 10 
 8.5 
 20 
 11 
 0 
ENDSEC
 0 
SECTION
 2 
ENTITIES
0
LINE
8
Layer 1
10
65.000076
20
123.565225
11
64.506183
21
123.360196
0
LINE
8
Layer 1
10
64.506183
20
123.360196
11
64.301412
21
122.866044
0
LINE
8
Layer 1
10
64.301412
20
122.866044
11
64.506183
21
122.372151
0
LINE
8
Layer 1
10
64.506183
20
122.372151
11
65.000076
21
122.167380
0
LINE
8
Layer 1
10
65.000076
20
122.167380
11
65.494228
21
122.372151
0
LINE
8
Layer 1
10
65.494228
20
122.372151
11
65.699257
21
122.866044
0
LINE
8
Layer 1
10
65.699257
20
122.866044
11
65.494228
21
123.360196
0
LINE
8
Layer 1
10
65.494228
20
123.360196
11
65.000076
21
123.565225
0
LINE
8
Layer 1
10
65.000076
20
123.565225
11
65.000076
21
123.565225
0
LINE
8
Layer 1
10
65.000076
20
123.261369
11
65.279495
21
123.145562
0
LINE
8
Layer 1
10
65.279495
20
123.145562
11
65.395402
21
122.866044
0
LINE
8
Layer 1
10
65.395402
20
122.866044
11
65.279495
21
122.586626
0
LINE
8
Layer 1
10
65.279495
20
122.586626
11
65.000076
21
122.470720
0
LINE
8
Layer 1
10
65.000076
20
122.470720
11
64.720658
21
122.586626
0
LINE
8
Layer 1
10
64.720658
20
122.586626
11
64.604752
21
122.866044
0
LINE
8
Layer 1
10
64.604752
20
122.866044
11
64.720658
21
123.145462
0
LINE
8
Layer 1
10
64.720658
20
123.145462
11
65.000076
21
123.261369
0
LINE
8
Layer 1
10
65.000076
20
123.261369
11
65.000076
21
123.261369
0
LINE
8
Layer 1
10
72.121597
20
122.474854
11
72.298846
21
122.256263
0
LINE
8
Layer 1
10
72.298846
20
122.256263
11
72.295745
21
122.237660
0
LINE
8
Layer 1
10
72.295745
20
122.237660
11
72.125730
21
121.220669
0
LINE
8
Layer 1
10
72.125730
20
121.220669
11
72.176889
21
121.080109
0
LINE
8
Layer 1
10
72.176889
20
121.080109
11
73.261061
21
120.152518
0
LINE
8
Layer 1
10
73.261061
20
120.152518
11
73.260545
21
120.148384
0
LINE
8
Layer 1
10
73.260545
20
120.148384
11
72.600119
21
118.667857
0
LINE
8
Layer 1
10
72.600119
20
118.667857
11
72.734996
21
118.453916
0
LINE
8
Layer 1
10
72.734996
20
118.453916
11
75.154999
21
118.407924
0
LINE
8
Layer 1
10
75.154999
20
118.407924
11
75.308994
21
118.542283
0
LINE
8
Layer 1
10
75.308994
20
118.542283
11
75.460923
21
119.876567
0
LINE
8
Layer 1
10
75.460923
20
119.876567
11
75.467125
21
119.876050
0
LINE
8
Layer 1
10
75.467125
20
119.876050
11
75.476427
21
119.993872
0
LINE
8
Layer 1
10
75.476427
20
119.993872
11
76.366294
21
121.002595
0
LINE
8
Layer 1
10
76.366294
20
121.002595
11
76.389548
21
121.168476
0
LINE
8
Layer 1
10
76.389548
20
121.168476
11
75.881051
21
122.231975
0
LINE
8
Layer 1
10
75.881051
20
122.231975
11
75.851080
21
122.295020
0
LINE
8
Layer 1
10
75.851080
20
122.295020
11
75.959601
21
122.474854
0
LINE
8
Layer 1
10
75.959601
20
122.474854
11
75.250600
21
122.474854
0
LINE
8
Layer 1
10
75.250600
20
122.474854
11
75.580295
21
122.157561
0
LINE
8
Layer 1
10
75.580295
20
122.157561
11
75.607168
21
122.101234
0
LINE
8
Layer 1
10
75.607168
20
122.101234
11
76.072255
21
121.128168
0
LINE
8
Layer 1
10
76.072255
20
121.128168
11
75.251116
21
120.197477
0
LINE
8
Layer 1
10
75.251116
20
120.197477
11
73.511174
21
120.338037
0
LINE
8
Layer 1
10
73.511174
20
120.338037
11
72.438890
21
121.254775
0
LINE
8
Layer 1
10
72.438890
20
121.254775
11
72.594952
21
122.188050
0
LINE
8
Layer 1
10
72.594952
20
122.188050
11
72.600638
21
122.222674
0
LINE
8
Layer 1
10
72.600638
20
122.222674
11
72.892092
21
122.455734
0
LINE
8
Layer 1
10
72.892092
20
122.455734
11
72.121597
21
122.474854
0
LINE
8
Layer 1
10
72.121597
20
122.474854
11
72.121597
21
122.474854
0
LINE
8
Layer 1
10
57.737997
20
122.438681
11
55.163480
21
121.698675
0
LINE
8
Layer 1
10
55.163480
20
121.698675
11
55.106637
21
121.667669
0
LINE
8
Layer 1
10
55.106637
20
121.667669
11
54.428643
21
121.080626
0
LINE
8
Layer 1
10
54.428643
20
121.080626
11
53.754782
21
121.982379
0
LINE
8
Layer 1
10
53.754782
20
121.982379
11
53.713960
21
122.037155
0
LINE
8
Layer 1
10
53.713960
20
122.037155
11
53.740831
21
122.353931
0
LINE
8
Layer 1
10
53.740831
20
122.353931
11
53.170840
21
121.830450
0
LINE
8
Layer 1
10
53.170840
20
121.830450
11
53.496917
21
121.820631
0
LINE
8
Layer 1
10
53.496917
20
121.820631
11
53.511387
21
121.800995
0
LINE
8
Layer 1
10
53.511387
20
121.800995
11
54.282398
21
120.768501
0
LINE
8
Layer 1
10
54.282398
20
120.768501
11
54.503057
21
120.744729
0
LINE
8
Layer 1
10
54.503057
20
120.744729
11
55.024990
21
121.195864
0
LINE
8
Layer 1
10
55.024990
20
121.195864
11
55.708667
21
119.086435
0
LINE
8
Layer 1
10
55.708667
20
119.086435
11
55.733987
21
119.007887
0
LINE
8
Layer 1
10
55.733987
20
119.007887
11
55.621333
21
118.731935
0
LINE
8
Layer 1
10
55.621333
20
118.731935
11
56.238349
21
118.947426
0
LINE
8
Layer 1
10
56.238349
20
118.947426
11
56.026476
21
119.089019
0
LINE
8
Layer 1
10
56.026476
20
119.089019
11
55.997020
21
119.179452
0
LINE
8
Layer 1
10
55.997020
20
119.179452
11
55.274068
21
121.411355
0
LINE
8
Layer 1
10
55.274068
20
121.411355
11
55.280270
21
121.416522
0
LINE
8
Layer 1
10
55.280270
20
121.416522
11
57.516306
21
122.058859
0
LINE
8
Layer 1
10
57.516306
20
122.058859
11
57.270326
21
121.472849
0
LINE
8
Layer 1
10
57.270326
20
121.472849
11
57.261541
21
121.379832
0
LINE
8
Layer 1
10
57.261541
20
121.379832
11
57.771586
21
119.162399
0
LINE
8
Layer 1
10
57.771586
20
119.162399
11
57.523539
21
118.858542
0
LINE
8
Layer 1
10
57.523539
20
118.858542
11
57.625859
21
118.612046
0
LINE
8
Layer 1
10
57.625859
20
118.612046
11
58.242874
21
118.550034
0
LINE
8
Layer 1
10
58.242874
20
118.550034
11
58.379301
21
118.792397
0
LINE
8
Layer 1
10
58.379301
20
118.792397
11
58.131255
21
119.123125
0
LINE
8
Layer 1
10
58.131255
20
119.123125
11
58.131771
21
119.123642
0
LINE
8
Layer 1
10
58.131771
20
119.123642
11
58.128670
21
119.126226
0
LINE
8
Layer 1
10
58.128670
20
119.126226
11
58.074412
21
119.198573
0
LINE
8
Layer 1
10
58.074412
20
119.198573
11
57.568500
21
121.399986
0
LINE
8
Layer 1
10
57.568500
20
121.399986
11
57.919898
21
122.233526
0
LINE
8
Layer 1
10
57.919898
20
122.233526
11
57.737997
21
122.438681
0
LINE
8
Layer 1
10
57.737997
20
122.438681
11
57.737997
21
122.438681
0
LINE
8
Layer 1
10
65.003177
20
121.957574
11
62.519094
21
118.712298
0
LINE
8
Layer 1
10
62.519094
20
118.712298
11
63.689048
21
118.712815
0
LINE
8
Layer 1
10
63.689048
20
118.712815
11
63.505597
21
118.925205
0
LINE
8
Layer 1
10
63.505597
20
118.925205
11
63.424182
21
119.070539
0
LINE
8
Layer 1
10
63.424182
20
119.070539
11
63.470651
21
119.277206
0
LINE
8
Layer 1
10
63.470651
20
119.277206
11
64.124679
21
120.255871
0
LINE
8
Layer 1
10
64.124679
20
120.255871
11
64.992842
21
121.374148
0
LINE
8
Layer 1
10
64.992842
20
121.374148
11
65.861521
21
120.255871
0
LINE
8
Layer 1
10
65.861521
20
120.255871
11
66.515331
21
119.277206
0
LINE
8
Layer 1
10
66.515331
20
119.277206
11
66.561557
21
119.070539
0
LINE
8
Layer 1
10
66.561557
20
119.070539
11
66.479571
21
118.925205
0
LINE
8
Layer 1
10
66.479571
20
118.925205
11
66.265113
21
118.710748
0
LINE
8
Layer 1
10
66.265113
20
118.710748
11
67.465555
21
118.712298
0
LINE
8
Layer 1
10
67.465555
20
118.712298
11
65.003177
21
121.957574
0
LINE
8
Layer 1
10
65.003177
20
121.957574
11
65.003177
21
121.957574
0
LINE
8
Layer 1
10
45.616273
20
121.090961
11
45.230767
21
120.505468
0
LINE
8
Layer 1
10
45.230767
20
120.505468
11
45.488632
21
120.613988
0
LINE
8
Layer 1
10
45.488632
20
120.613988
11
45.553744
21
120.575231
0
LINE
8
Layer 1
10
45.553744
20
120.575231
11
47.389288
21
119.483310
0
LINE
8
Layer 1
10
47.389288
20
119.483310
11
48.376823
21
118.017768
0
LINE
8
Layer 1
10
48.376823
20
118.017768
11
48.825376
21
116.791488
0
LINE
8
Layer 1
10
48.825376
20
116.791488
11
48.840362
21
116.154835
0
LINE
8
Layer 1
10
48.840362
20
116.154835
11
48.841912
21
116.093340
0
LINE
8
Layer 1
10
48.841912
20
116.093340
11
48.667761
21
115.849944
0
LINE
8
Layer 1
10
48.667761
20
115.849944
11
49.361776
21
115.972934
0
LINE
8
Layer 1
10
49.361776
20
115.972934
11
49.144217
21
116.147600
0
LINE
8
Layer 1
10
49.144217
20
116.147600
11
49.143701
21
116.162070
0
LINE
8
Layer 1
10
49.143701
20
116.162070
11
49.128199
21
116.824561
0
LINE
8
Layer 1
10
49.128199
20
116.824561
11
49.118896
21
116.873653
0
LINE
8
Layer 1
10
49.118896
20
116.873653
11
48.656392
21
118.137140
0
LINE
8
Layer 1
10
48.656392
20
118.137140
11
48.640374
21
118.169696
0
LINE
8
Layer 1
10
48.640374
20
118.169696
11
47.622349
21
119.680713
0
LINE
8
Layer 1
10
47.622349
20
119.680713
11
47.574290
21
119.726188
0
LINE
8
Layer 1
10
47.574290
20
119.726188
11
45.709289
21
120.835680
0
LINE
8
Layer 1
10
45.709289
20
120.835680
11
45.672084
21
120.857901
0
LINE
8
Layer 1
10
45.672084
20
120.857901
11
45.616273
21
121.090961
0
LINE
8
Layer 1
10
45.616273
20
121.090961
11
45.616273
21
121.090961
0
LINE
8
Layer 1
10
84.553897
20
120.169572
11
84.507905
21
120.025395
0
LINE
8
Layer 1
10
84.507905
20
120.025395
11
84.252622
21
119.220794
0
LINE
8
Layer 1
10
84.252622
20
119.220794
11
84.250555
21
119.221310
0
LINE
8
Layer 1
10
84.250555
20
119.221310
11
82.455836
21
119.443002
0
LINE
8
Layer 1
10
82.455836
20
119.443002
11
81.255910
21
119.652291
0
LINE
8
Layer 1
10
81.255910
20
119.652291
11
81.129820
21
119.674512
0
LINE
8
Layer 1
10
81.129820
20
119.674512
11
81.013549
21
119.945813
0
LINE
8
Layer 1
10
81.013549
20
119.945813
11
80.820795
21
119.203740
0
LINE
8
Layer 1
10
80.820795
20
119.203740
11
81.055922
21
119.379440
0
LINE
8
Layer 1
10
81.055922
20
119.379440
11
81.203718
21
119.353085
0
LINE
8
Layer 1
10
81.203718
20
119.353085
11
82.307524
21
119.160332
0
LINE
8
Layer 1
10
82.307524
20
119.160332
11
82.307524
21
118.177448
0
LINE
8
Layer 1
10
82.307524
20
118.177448
11
81.045587
21
116.629741
0
LINE
8
Layer 1
10
81.045587
20
116.629741
11
80.957222
21
116.521737
0
LINE
8
Layer 1
10
80.957222
20
116.521737
11
80.698322
21
116.507268
0
LINE
8
Layer 1
10
80.698322
20
116.507268
11
81.219220
21
116.035979
0
LINE
8
Layer 1
10
81.219220
20
116.035979
11
81.192865
21
116.329501
0
LINE
8
Layer 1
10
81.192865
20
116.329501
11
81.281233
21
116.438021
0
LINE
8
Layer 1
10
81.281233
20
116.438021
11
82.504929
21
117.938186
0
LINE
8
Layer 1
10
82.504929
20
117.938186
11
83.812340
21
117.832250
0
LINE
8
Layer 1
10
83.812340
20
117.832250
11
83.570495
21
117.070023
0
LINE
8
Layer 1
10
83.570495
20
117.070023
11
83.130729
21
116.957886
0
LINE
8
Layer 1
10
83.130729
20
116.957886
11
83.017559
21
116.825077
0
LINE
8
Layer 1
10
83.017559
20
116.825077
11
82.994821
21
116.592534
0
LINE
8
Layer 1
10
82.994821
20
116.592534
11
83.221679
21
116.446806
0
LINE
8
Layer 1
10
83.221679
20
116.446806
11
83.742061
21
116.745496
0
LINE
8
Layer 1
10
83.742061
20
116.745496
11
83.768416
21
116.764616
0
LINE
8
Layer 1
10
83.768416
20
116.764616
11
84.864988
21
117.750601
0
LINE
8
Layer 1
10
84.864988
20
117.750601
11
84.886176
21
117.953172
0
LINE
8
Layer 1
10
84.886176
20
117.953172
11
84.431424
21
118.573289
0
LINE
8
Layer 1
10
84.431424
20
118.573289
11
84.385948
21
118.636334
0
LINE
8
Layer 1
10
84.385948
20
118.636334
11
84.797808
21
119.933411
0
LINE
8
Layer 1
10
84.797808
20
119.933411
11
84.842766
21
120.077588
0
LINE
8
Layer 1
10
84.842766
20
120.077588
11
84.553897
21
120.169572
0
LINE
8
Layer 1
10
84.553897
20
120.169572
11
84.553897
21
120.169572
0
LINE
8
Layer 1
10
73.540630
20
120.031596
11
75.157584
21
119.900855
0
LINE
8
Layer 1
10
75.157584
20
119.900855
11
75.023223
21
118.713849
0
LINE
8
Layer 1
10
75.023223
20
118.713849
11
72.970123
21
118.753122
0
LINE
8
Layer 1
10
72.970123
20
118.753122
11
73.540630
21
120.031596
0
LINE
8
Layer 1
10
73.540630
20
120.031596
11
73.540630
21
120.031596
0
LINE
8
Layer 1
10
82.611382
20
119.117441
11
84.159605
21
118.926755
0
LINE
8
Layer 1
10
84.159605
20
118.926755
11
83.906391
21
118.129389
0
LINE
8
Layer 1
10
83.906391
20
118.129389
11
82.611382
21
118.234292
0
LINE
8
Layer 1
10
82.611382
20
118.234292
11
82.611382
21
119.117441
0
LINE
8
Layer 1
10
82.611382
20
119.117441
11
82.611382
21
119.117441
0
LINE
8
Layer 1
10
84.272259
20
118.277700
11
84.560615
21
117.884443
0
LINE
8
Layer 1
10
84.560615
20
117.884443
11
83.981839
21
117.364579
0
LINE
8
Layer 1
10
83.981839
20
117.364579
11
84.272259
21
118.277700
0
LINE
8
Layer 1
10
84.272259
20
118.277700
11
84.272259
21
118.277700
0
LINE
8
Layer 1
10
91.152967
20
117.309802
11
91.003624
21
117.045736
0
LINE
8
Layer 1
10
91.003624
20
117.045736
11
91.135396
21
116.970288
0
LINE
8
Layer 1
10
91.135396
20
116.970288
11
93.124420
21
115.845294
0
LINE
8
Layer 1
10
93.124420
20
115.845294
11
93.255680
21
115.770363
0
LINE
8
Layer 1
10
93.255680
20
115.770363
11
93.405024
21
116.034429
0
LINE
8
Layer 1
10
93.405024
20
116.034429
11
93.273248
21
116.109360
0
LINE
8
Layer 1
10
93.273248
20
116.109360
11
91.285259
21
117.234354
0
LINE
8
Layer 1
10
91.285259
20
117.234354
11
91.152967
21
117.309802
0
LINE
8
Layer 1
10
91.152967
20
117.309802
11
91.152967
21
117.309802
0
LINE
8
Layer 1
10
36.523301
20
117.200248
11
36.338299
21
116.521737
0
LINE
8
Layer 1
10
36.338299
20
116.521737
11
36.581179
21
116.647827
0
LINE
8
Layer 1
10
36.581179
20
116.647827
11
36.686596
21
116.620956
0
LINE
8
Layer 1
10
36.686596
20
116.620956
11
38.212600
21
116.235967
0
LINE
8
Layer 1
10
38.212600
20
116.235967
11
38.230687
21
116.231316
0
LINE
8
Layer 1
10
38.230687
20
116.231316
11
38.372797
21
115.982753
0
LINE
8
Layer 1
10
38.372797
20
115.982753
11
38.557799
21
116.629741
0
LINE
8
Layer 1
10
38.557799
20
116.629741
11
38.335073
21
116.518120
0
LINE
8
Layer 1
10
38.335073
20
116.518120
11
38.287014
21
116.530522
0
LINE
8
Layer 1
10
38.287014
20
116.530522
11
36.760494
21
116.915511
0
LINE
8
Layer 1
10
36.760494
20
116.915511
11
36.677812
21
116.936698
0
LINE
8
Layer 1
10
36.677812
20
116.936698
11
36.523301
21
117.200248
0
LINE
8
Layer 1
10
36.523301
20
117.200248
11
36.523301
21
117.200248
0
LINE
8
Layer 1
10
90.867197
20
116.355339
11
90.708550
21
116.096441
0
LINE
8
Layer 1
10
90.708550
20
116.096441
11
90.837743
21
116.017376
0
LINE
8
Layer 1
10
90.837743
20
116.017376
11
91.067184
21
115.877850
0
LINE
8
Layer 1
10
91.067184
20
115.877850
11
90.413479
21
114.003031
0
LINE
8
Layer 1
10
90.413479
20
114.003031
11
89.114853
21
113.593754
0
LINE
8
Layer 1
10
89.114853
20
113.593754
11
89.074028
21
113.325037
0
LINE
8
Layer 1
10
89.074028
20
113.325037
11
90.414514
21
112.399514
0
LINE
8
Layer 1
10
90.414514
20
112.399514
11
90.652742
21
112.520953
0
LINE
8
Layer 1
10
90.652742
20
112.520953
11
90.682195
21
113.816479
0
LINE
8
Layer 1
10
90.682195
20
113.816479
11
91.793756
21
115.434466
0
LINE
8
Layer 1
10
91.793756
20
115.434466
11
92.102262
21
115.246365
0
LINE
8
Layer 1
10
92.102262
20
115.246365
11
92.231971
21
115.167816
0
LINE
8
Layer 1
10
92.231971
20
115.167816
11
92.389583
21
115.426715
0
LINE
8
Layer 1
10
92.389583
20
115.426715
11
92.260393
21
115.506297
0
LINE
8
Layer 1
10
92.260393
20
115.506297
11
91.810808
21
115.780181
0
LINE
8
Layer 1
10
91.810808
20
115.780181
11
91.710555
21
115.848911
0
LINE
8
Layer 1
10
91.710555
20
115.848911
11
91.706938
21
115.843743
0
LINE
8
Layer 1
10
91.706938
20
115.843743
11
90.996387
21
116.276791
0
LINE
8
Layer 1
10
90.996387
20
116.276791
11
90.867197
21
116.355339
0
LINE
8
Layer 1
10
90.867197
20
116.355339
11
90.867197
21
116.355339
0
LINE
8
Layer 1
10
91.332286
20
115.716103
11
91.533821
21
115.593113
0
LINE
8
Layer 1
10
91.533821
20
115.593113
11
91.036696
21
114.869127
0
LINE
8
Layer 1
10
91.036696
20
114.869127
11
91.332286
21
115.716103
0
LINE
8
Layer 1
10
91.332286
20
115.716103
11
91.332286
21
115.716103
0
LINE
8
Layer 1
10
38.943304
20
115.701633
11
38.700425
21
115.520249
0
LINE
8
Layer 1
10
38.700425
20
115.520249
11
38.790859
21
115.398293
0
LINE
8
Layer 1
10
38.790859
20
115.398293
11
39.376868
21
114.612296
0
LINE
8
Layer 1
10
39.376868
20
114.612296
11
39.467303
21
114.490856
0
LINE
8
Layer 1
10
39.467303
20
114.490856
11
39.710182
21
114.671723
0
LINE
8
Layer 1
10
39.710182
20
114.671723
11
39.619748
21
114.793163
0
LINE
8
Layer 1
10
39.619748
20
114.793163
11
39.034255
21
115.579677
0
LINE
8
Layer 1
10
39.034255
20
115.579677
11
38.943304
21
115.701633
0
LINE
8
Layer 1
10
38.943304
20
115.701633
11
38.943304
21
115.701633
0
LINE
8
Layer 1
10
40.058479
20
113.677987
11
39.811467
21
113.589103
0
LINE
8
Layer 1
10
39.811467
20
113.589103
11
39.641967
21
112.633091
0
LINE
8
Layer 1
10
39.641967
20
112.633091
11
39.848157
21
112.466176
0
LINE
8
Layer 1
10
39.848157
20
112.466176
11
40.726654
21
112.820676
0
LINE
8
Layer 1
10
40.726654
20
112.820676
11
40.767480
21
113.076991
0
LINE
8
Layer 1
10
40.767480
20
113.076991
11
40.058479
21
113.677987
0
LINE
8
Layer 1
10
40.058479
20
113.677987
11
40.058479
21
113.677987
0
LINE
8
Layer 1
10
90.375755
20
113.672819
11
90.355602
21
112.808790
0
LINE
8
Layer 1
10
90.355602
20
112.808790
11
89.501909
21
113.397901
0
LINE
8
Layer 1
10
89.501909
20
113.397901
11
90.375755
21
113.672819
0
LINE
8
Layer 1
10
90.375755
20
113.672819
11
90.375755
21
113.672819
0
LINE
8
Layer 1
10
40.064165
20
113.275945
11
40.380940
21
113.007744
0
LINE
8
Layer 1
10
40.380940
20
113.007744
11
39.988201
21
112.849098
0
LINE
8
Layer 1
10
39.988201
20
112.849098
11
40.064165
21
113.275945
0
LINE
8
Layer 1
10
40.064165
20
113.275945
11
40.064165
21
113.275945
0
LINE
8
Layer 1
10
30.269943
20
112.719390
11
29.771267
21
112.276524
0
LINE
8
Layer 1
10
29.771267
20
112.276524
11
30.006910
21
112.294611
0
LINE
8
Layer 1
10
30.006910
20
112.294611
11
30.060136
21
112.238283
0
LINE
8
Layer 1
10
30.060136
20
112.238283
11
30.944320
21
111.310693
0
LINE
8
Layer 1
10
30.944320
20
111.310693
11
31.414574
21
110.453899
0
LINE
8
Layer 1
10
31.414574
20
110.453899
11
31.424911
21
109.467914
0
LINE
8
Layer 1
10
31.424911
20
109.467914
11
30.937086
21
108.210628
0
LINE
8
Layer 1
10
30.937086
20
108.210628
11
30.925717
21
108.180656
0
LINE
8
Layer 1
10
30.925717
20
108.180656
11
30.668884
21
108.133113
0
LINE
8
Layer 1
10
30.668884
20
108.133113
11
31.278149
21
107.745541
0
LINE
8
Layer 1
10
31.278149
20
107.745541
11
31.177896
21
107.993069
0
LINE
8
Layer 1
10
31.177896
20
107.993069
11
31.219753
21
108.101075
0
LINE
8
Layer 1
10
31.219753
20
108.101075
11
31.718431
21
109.385748
0
LINE
8
Layer 1
10
31.718431
20
109.385748
11
31.728766
21
109.442075
0
LINE
8
Layer 1
10
31.728766
20
109.442075
11
31.717397
21
110.494723
0
LINE
8
Layer 1
10
31.717397
20
110.494723
11
31.698794
21
110.566036
0
LINE
8
Layer 1
10
31.698794
20
110.566036
11
31.200119
21
111.474507
0
LINE
8
Layer 1
10
31.200119
20
111.474507
11
31.177380
21
111.506029
0
LINE
8
Layer 1
10
31.177380
20
111.506029
11
30.279761
21
112.448089
0
LINE
8
Layer 1
10
30.279761
20
112.448089
11
30.238936
21
112.490464
0
LINE
8
Layer 1
10
30.238936
20
112.490464
11
30.269943
21
112.719390
0
LINE
8
Layer 1
10
30.269943
20
112.719390
11
30.269943
21
112.719390
0
LINE
8
Layer 1
10
100.547730
20
112.615521
11
100.620078
21
112.390212
0
LINE
8
Layer 1
10
100.620078
20
112.390212
11
100.570985
21
112.308563
0
LINE
8
Layer 1
10
100.570985
20
112.308563
11
99.660449
21
110.781010
0
LINE
8
Layer 1
10
99.660449
20
110.781010
11
97.909137
21
111.761311
0
LINE
8
Layer 1
10
97.909137
20
111.761311
11
97.801131
21
111.821772
0
LINE
8
Layer 1
10
97.801131
20
111.821772
11
97.757208
21
112.076536
0
LINE
8
Layer 1
10
97.757208
20
112.076536
11
97.356198
21
111.521532
0
LINE
8
Layer 1
10
97.356198
20
111.521532
11
97.635251
21
111.584061
0
LINE
8
Layer 1
10
97.635251
20
111.584061
11
97.628017
21
111.571142
0
LINE
8
Layer 1
10
97.628017
20
111.571142
11
97.760309
21
111.497244
0
LINE
8
Layer 1
10
97.760309
20
111.497244
11
99.623756
21
110.453382
0
LINE
8
Layer 1
10
99.623756
20
110.453382
11
99.950868
21
108.506218
0
LINE
8
Layer 1
10
99.950868
20
108.506218
11
99.974122
21
108.367206
0
LINE
8
Layer 1
10
99.974122
20
108.367206
11
99.822712
21
108.192025
0
LINE
8
Layer 1
10
99.822712
20
108.192025
11
100.485720
21
108.299512
0
LINE
8
Layer 1
10
100.485720
20
108.299512
11
100.270228
21
108.434386
0
LINE
8
Layer 1
10
100.270228
20
108.434386
11
100.250074
21
108.556343
0
LINE
8
Layer 1
10
100.250074
20
108.556343
11
99.911077
21
110.575855
0
LINE
8
Layer 1
10
99.911077
20
110.575855
11
99.900743
21
110.590841
0
LINE
8
Layer 1
10
99.900743
20
110.590841
11
100.831435
21
112.152500
0
LINE
8
Layer 1
10
100.831435
20
112.152500
11
100.869675
21
112.216063
0
LINE
8
Layer 1
10
100.869675
20
112.216063
11
101.132707
21
112.261021
0
LINE
8
Layer 1
10
101.132707
20
112.261021
11
100.547730
21
112.615521
0
LINE
8
Layer 1
10
100.547730
20
112.615521
11
100.547730
21
112.615521
0
LINE
8
Layer 1
10
98.849129
20
110.163477
11
98.743708
21
110.054957
0
LINE
8
Layer 1
10
98.743708
20
110.054957
11
98.034192
21
109.330454
0
LINE
8
Layer 1
10
98.034192
20
109.330454
11
97.927740
21
109.222451
0
LINE
8
Layer 1
10
97.927740
20
109.222451
11
98.145296
21
109.010061
0
LINE
8
Layer 1
10
98.145296
20
109.010061
11
98.251232
21
109.118581
0
LINE
8
Layer 1
10
98.251232
20
109.118581
11
98.960232
21
109.843084
0
LINE
8
Layer 1
10
98.960232
20
109.843084
11
99.066169
21
109.951087
0
LINE
8
Layer 1
10
99.066169
20
109.951087
11
98.849129
21
110.163477
0
LINE
8
Layer 1
10
98.849129
20
110.163477
11
98.849129
21
110.163477
0
LINE
8
Layer 1
10
97.651271
20
108.897923
11
96.449279
21
108.789920
0
LINE
8
Layer 1
10
96.449279
20
108.789920
11
96.356262
21
108.529988
0
LINE
8
Layer 1
10
96.356262
20
108.529988
11
97.482288
21
107.435482
0
LINE
8
Layer 1
10
97.482288
20
107.435482
11
97.739637
21
107.534701
0
LINE
8
Layer 1
10
97.739637
20
107.534701
11
97.816117
21
108.737209
0
LINE
8
Layer 1
10
97.816117
20
108.737209
11
97.651271
21
108.897923
0
LINE
8
Layer 1
10
97.651271
20
108.897923
11
97.651271
21
108.897923
0
LINE
8
Layer 1
10
33.219114
20
108.793537
11
32.765394
21
108.416299
0
LINE
8
Layer 1
10
32.765394
20
108.416299
11
32.751959
21
108.195124
0
LINE
8
Layer 1
10
32.751959
20
108.195124
11
32.985019
21
107.951728
0
LINE
8
Layer 1
10
32.985019
20
107.951728
11
33.086823
21
107.904704
0
LINE
8
Layer 1
10
33.086823
20
107.904704
11
33.740528
21
107.871113
0
LINE
8
Layer 1
10
33.740528
20
107.871113
11
33.874886
21
108.106758
0
LINE
8
Layer 1
10
33.874886
20
108.106758
11
33.442872
21
108.759947
0
LINE
8
Layer 1
10
33.442872
20
108.759947
11
33.219114
21
108.793537
0
LINE
8
Layer 1
10
33.219114
20
108.793537
11
33.219114
21
108.793537
0
LINE
8
Layer 1
10
97.501925
20
108.579597
11
97.457483
21
107.883000
0
LINE
8
Layer 1
10
97.457483
20
107.883000
11
96.804812
21
108.517068
0
LINE
8
Layer 1
10
96.804812
20
108.517068
11
97.501925
21
108.579597
0
LINE
8
Layer 1
10
97.501925
20
108.579597
11
97.501925
21
108.579597
0
LINE
8
Layer 1
10
33.283191
20
108.451957
11
33.456308
21
108.189440
0
LINE
8
Layer 1
10
33.456308
20
108.189440
11
33.162785
21
108.204426
0
LINE
8
Layer 1
10
33.162785
20
108.204426
11
33.084238
21
108.286593
0
LINE
8
Layer 1
10
33.084238
20
108.286593
11
33.283191
21
108.451957
0
LINE
8
Layer 1
10
33.283191
20
108.451957
11
33.283191
21
108.451957
0
LINE
8
Layer 1
10
22.364494
20
106.445881
11
22.165022
21
105.737396
0
LINE
8
Layer 1
10
22.165022
20
105.737396
11
22.393950
21
105.896043
0
LINE
8
Layer 1
10
22.393950
20
105.896043
11
22.432706
21
105.887775
0
LINE
8
Layer 1
10
22.432706
20
105.887775
11
24.294605
21
105.489350
0
LINE
8
Layer 1
10
24.294605
20
105.489350
11
24.631536
21
105.046483
0
LINE
8
Layer 1
10
24.631536
20
105.046483
11
24.826872
21
104.440836
0
LINE
8
Layer 1
10
24.826872
20
104.440836
11
24.826872
21
102.745851
0
LINE
8
Layer 1
10
24.826872
20
102.745851
11
24.900768
21
102.616145
0
LINE
8
Layer 1
10
24.900768
20
102.616145
11
25.454738
21
102.283350
0
LINE
8
Layer 1
10
25.454738
20
102.283350
11
25.513650
21
102.263194
0
LINE
8
Layer 1
10
25.513650
20
102.263194
11
26.665518
21
102.119533
0
LINE
8
Layer 1
10
26.665518
20
102.119533
11
26.688253
21
102.116435
0
LINE
8
Layer 1
10
26.688253
20
102.116435
11
26.795224
21
101.871487
0
LINE
8
Layer 1
10
26.795224
20
101.871487
11
26.950770
21
102.546898
0
LINE
8
Layer 1
10
26.950770
20
102.546898
11
26.762667
21
102.413056
0
LINE
8
Layer 1
10
26.762667
20
102.413056
11
26.703758
21
102.420809
0
LINE
8
Layer 1
10
26.703758
20
102.420809
11
25.582897
21
102.560334
0
LINE
8
Layer 1
10
25.582897
20
102.560334
11
25.130727
21
102.832151
0
LINE
8
Layer 1
10
25.130727
20
102.832151
11
25.130727
21
104.463575
0
LINE
8
Layer 1
10
25.130727
20
104.463575
11
25.123494
21
104.509567
0
LINE
8
Layer 1
10
25.123494
20
104.509567
11
24.912655
21
105.163272
0
LINE
8
Layer 1
10
24.912655
20
105.163272
11
24.888883
21
105.208230
0
LINE
8
Layer 1
10
24.888883
20
105.208230
11
24.501311
21
105.718277
0
LINE
8
Layer 1
10
24.501311
20
105.718277
11
24.412427
21
105.774605
0
LINE
8
Layer 1
10
24.412427
20
105.774605
11
22.495751
21
106.184399
0
LINE
8
Layer 1
10
22.495751
20
106.184399
11
22.483866
21
106.186981
0
LINE
8
Layer 1
10
22.483866
20
106.186981
11
22.364494
21
106.445881
0
LINE
8
Layer 1
10
22.364494
20
106.445881
11
22.364494
21
106.445881
0
LINE
8
Layer 1
10
107.186075
20
106.169410
11
105.721569
21
105.414936
0
LINE
8
Layer 1
10
105.721569
20
105.414936
11
104.152674
21
106.051589
0
LINE
8
Layer 1
10
104.152674
20
106.051589
11
104.012630
21
106.108434
0
LINE
8
Layer 1
10
104.012630
20
106.108434
11
103.898425
21
105.827831
0
LINE
8
Layer 1
10
103.898425
20
105.827831
11
104.038985
21
105.769953
0
LINE
8
Layer 1
10
104.038985
20
105.769953
11
105.672991
21
105.107461
0
LINE
8
Layer 1
10
105.672991
20
105.107461
11
105.799084
21
105.113663
0
LINE
8
Layer 1
10
105.799084
20
105.113663
11
107.042933
21
105.753933
0
LINE
8
Layer 1
10
107.042933
20
105.753933
11
107.057919
21
102.205835
0
LINE
8
Layer 1
10
107.057919
20
102.205835
11
104.693725
21
102.162943
0
LINE
8
Layer 1
10
104.693725
20
102.162943
11
104.583137
21
102.111265
0
LINE
8
Layer 1
10
104.583137
20
102.111265
11
104.259126
21
101.740746
0
LINE
8
Layer 1
10
104.259126
20
101.740746
11
104.158876
21
101.627060
0
LINE
8
Layer 1
10
104.158876
20
101.627060
11
104.387285
21
101.427072
0
LINE
8
Layer 1
10
104.387285
20
101.427072
11
104.487538
21
101.541277
0
LINE
8
Layer 1
10
104.487538
20
101.541277
11
104.767623
21
101.860636
0
LINE
8
Layer 1
10
104.767623
20
101.860636
11
107.227935
21
101.905594
0
LINE
8
Layer 1
10
107.227935
20
101.905594
11
107.345757
21
101.966057
0
LINE
8
Layer 1
10
107.345757
20
101.966057
11
108.764273
21
103.846043
0
LINE
8
Layer 1
10
108.764273
20
103.846043
11
108.769441
21
104.021224
0
LINE
8
Layer 1
10
108.769441
20
104.021224
11
107.382446
21
106.118253
0
LINE
8
Layer 1
10
107.382446
20
106.118253
11
107.186075
21
106.169410
0
LINE
8
Layer 1
10
107.186075
20
106.169410
11
107.186075
21
106.169410
0
LINE
8
Layer 1
10
107.346791
20
105.621125
11
108.457315
21
103.943711
0
LINE
8
Layer 1
10
108.457315
20
103.943711
11
107.360227
21
102.487986
0
LINE
8
Layer 1
10
107.360227
20
102.487986
11
107.346791
21
105.621125
0
LINE
8
Layer 1
10
107.346791
20
105.621125
11
107.346791
21
105.621125
0
LINE
8
Layer 1
10
112.400221
20
99.715551
11
111.735662
21
99.704181
0
LINE
8
Layer 1
10
111.735662
20
99.704181
11
111.915497
21
99.524347
0
LINE
8
Layer 1
10
111.915497
20
99.524347
11
111.916015
21
99.448383
0
LINE
8
Layer 1
10
111.916015
20
99.448383
11
111.926350
21
98.089812
0
LINE
8
Layer 1
10
111.926350
20
98.089812
11
110.723323
21
97.457292
0
LINE
8
Layer 1
10
110.723323
20
97.457292
11
110.642191
21
97.322419
0
LINE
8
Layer 1
10
110.642191
20
97.322419
11
110.653044
21
94.952022
0
LINE
8
Layer 1
10
110.653044
20
94.952022
11
110.653044
21
94.877092
0
LINE
8
Layer 1
10
110.653044
20
94.877092
11
110.483544
21
94.730849
0
LINE
8
Layer 1
10
110.483544
20
94.730849
11
111.103661
21
94.730849
0
LINE
8
Layer 1
10
111.103661
20
94.730849
11
110.956902
21
94.866758
0
LINE
8
Layer 1
10
110.956902
20
94.866758
11
110.956383
21
94.952541
0
LINE
8
Layer 1
10
110.956383
20
94.952541
11
110.946049
21
97.231984
0
LINE
8
Layer 1
10
110.946049
20
97.231984
11
112.149592
21
97.864502
0
LINE
8
Layer 1
10
112.149592
20
97.864502
11
112.230207
21
97.999378
0
LINE
8
Layer 1
10
112.230207
20
97.999378
11
112.219354
21
99.451484
0
LINE
8
Layer 1
10
112.219354
20
99.451484
11
112.218320
21
99.528483
0
LINE
8
Layer 1
10
112.218320
20
99.528483
11
112.400221
21
99.715551
0
LINE
8
Layer 1
10
112.400221
20
99.715551
11
112.400221
21
99.715551
0
LINE
8
Layer 1
10
17.825758
20
99.202402
11
16.961729
21
99.113521
0
LINE
8
Layer 1
10
16.961729
20
99.113521
11
16.829954
21
99.000348
0
LINE
8
Layer 1
10
16.829954
20
99.000348
11
16.697146
21
98.479969
0
LINE
8
Layer 1
10
16.697146
20
98.479969
11
16.747272
21
98.325455
0
LINE
8
Layer 1
10
16.747272
20
98.325455
11
17.323464
21
97.849000
0
LINE
8
Layer 1
10
17.323464
20
97.849000
11
17.534303
21
97.866052
0
LINE
8
Layer 1
10
17.534303
20
97.866052
11
17.766847
21
98.132185
0
LINE
8
Layer 1
10
17.766847
20
98.132185
11
17.801987
21
98.206083
0
LINE
8
Layer 1
10
17.801987
20
98.206083
11
17.902756
21
98.781758
0
LINE
8
Layer 1
10
17.902756
20
98.781758
11
19.053588
21
97.669165
0
LINE
8
Layer 1
10
19.053588
20
97.669165
11
19.153840
21
97.572016
0
LINE
8
Layer 1
10
19.153840
20
97.572016
11
19.148156
21
97.322934
0
LINE
8
Layer 1
10
19.148156
20
97.322934
11
19.591539
21
97.832979
0
LINE
8
Layer 1
10
19.591539
20
97.832979
11
19.339875
21
97.813344
0
LINE
8
Layer 1
10
19.339875
20
97.813344
11
19.264428
21
97.886208
0
LINE
8
Layer 1
10
19.264428
20
97.886208
11
17.946681
21
99.161061
0
LINE
8
Layer 1
10
17.946681
20
99.161061
11
17.825758
21
99.202402
0
LINE
8
Layer 1
10
17.825758
20
99.202402
11
17.825758
21
99.202402
0
LINE
8
Layer 1
10
17.611301
20
98.875293
11
17.510532
21
98.299619
0
LINE
8
Layer 1
10
17.510532
20
98.299619
11
17.403045
21
98.176627
0
LINE
8
Layer 1
10
17.403045
20
98.176627
11
17.014956
21
98.497537
0
LINE
8
Layer 1
10
17.014956
20
98.497537
11
17.097638
21
98.823099
0
LINE
8
Layer 1
10
17.097638
20
98.823099
11
17.611301
21
98.875293
0
LINE
8
Layer 1
10
17.611301
20
98.875293
11
17.611301
21
98.875293
0
LINE
8
Layer 1
10
17.820073
20
97.127598
11
17.647474
21
97.101243
0
LINE
8
Layer 1
10
17.647474
20
97.101243
11
17.414931
21
96.879552
0
LINE
8
Layer 1
10
17.414931
20
96.879552
11
17.414414
21
96.660442
0
LINE
8
Layer 1
10
17.414414
20
96.660442
11
17.735841
21
96.350386
0
LINE
8
Layer 1
10
17.735841
20
96.350386
11
17.835576
21
96.307494
0
LINE
8
Layer 1
10
17.835576
20
96.307494
11
18.145635
21
96.296641
0
LINE
8
Layer 1
10
18.145635
20
96.296641
11
18.302731
21
96.448570
0
LINE
8
Layer 1
10
18.302731
20
96.448570
11
18.302731
21
96.792218
0
LINE
8
Layer 1
10
18.302731
20
96.792218
11
18.219015
21
96.928126
0
LINE
8
Layer 1
10
18.219015
20
96.928126
11
17.820073
21
97.127598
0
LINE
8
Layer 1
10
17.820073
20
97.127598
11
17.820073
21
97.127598
0
LINE
8
Layer 1
10
17.779766
20
96.807720
11
17.999390
21
96.698167
0
LINE
8
Layer 1
10
17.999390
20
96.698167
11
17.999390
21
96.605666
0
LINE
8
Layer 1
10
17.999390
20
96.605666
11
17.905340
21
96.608767
0
LINE
8
Layer 1
10
17.905340
20
96.608767
11
17.739458
21
96.768964
0
LINE
8
Layer 1
10
17.739458
20
96.768964
11
17.779766
21
96.807720
0
LINE
8
Layer 1
10
17.779766
20
96.807720
11
17.779766
21
96.807720
0
LINE
8
Layer 1
10
18.493933
20
96.360720
11
18.216948
21
96.237731
0
LINE
8
Layer 1
10
18.216948
20
96.237731
11
18.278443
21
96.098722
0
LINE
8
Layer 1
10
18.278443
20
96.098722
11
18.544576
21
95.500825
0
LINE
8
Layer 1
10
18.544576
20
95.500825
11
18.776086
21
95.442432
0
LINE
8
Layer 1
10
18.776086
20
95.442432
11
19.109916
21
95.702364
0
LINE
8
Layer 1
10
19.109916
20
95.702364
11
19.219469
21
95.664123
0
LINE
8
Layer 1
10
19.219469
20
95.664123
11
19.549165
21
94.788727
0
LINE
8
Layer 1
10
19.549165
20
94.788727
11
19.687140
21
94.690024
0
LINE
8
Layer 1
10
19.687140
20
94.690024
11
20.506211
21
94.668320
0
LINE
8
Layer 1
10
20.506211
20
94.668320
11
20.658139
21
94.664703
0
LINE
8
Layer 1
10
20.658139
20
94.664703
11
20.666924
21
94.967527
0
LINE
8
Layer 1
10
20.666924
20
94.967527
11
20.514996
21
94.971659
0
LINE
8
Layer 1
10
20.514996
20
94.971659
11
19.797211
21
94.990781
0
LINE
8
Layer 1
10
19.797211
20
94.990781
11
19.478368
21
95.836722
0
LINE
8
Layer 1
10
19.478368
20
95.836722
11
19.386384
21
95.926640
0
LINE
8
Layer 1
10
19.386384
20
95.926640
11
19.131103
21
96.015521
0
LINE
8
Layer 1
10
19.131103
20
96.015521
11
18.988476
21
95.992267
0
LINE
8
Layer 1
10
18.988476
20
95.992267
11
18.743013
21
95.801066
0
LINE
8
Layer 1
10
18.743013
20
95.801066
11
18.555428
21
96.222227
0
LINE
8
Layer 1
10
18.555428
20
96.222227
11
18.493933
21
96.360720
0
LINE
8
Layer 1
10
18.493933
20
96.360720
11
18.493933
21
96.360720
0
LINE
8
Layer 1
10
13.185220
20
91.329510
11
12.972831
21
91.295919
0
LINE
8
Layer 1
10
12.972831
20
91.295919
11
11.724846
21
89.585432
0
LINE
8
Layer 1
10
11.724846
20
89.585432
11
11.759986
21
89.371493
0
LINE
8
Layer 1
10
11.759986
20
89.371493
11
14.781503
21
87.261031
0
LINE
8
Layer 1
10
14.781503
20
87.261031
11
14.937049
21
86.653315
0
LINE
8
Layer 1
10
14.937049
20
86.653315
11
14.974773
21
86.505522
0
LINE
8
Layer 1
10
14.974773
20
86.505522
11
15.268812
21
86.580968
0
LINE
8
Layer 1
10
15.268812
20
86.580968
11
15.231088
21
86.727729
0
LINE
8
Layer 1
10
15.231088
20
86.727729
11
15.094145
21
87.263097
0
LINE
8
Layer 1
10
15.094145
20
87.263097
11
16.686294
21
89.452625
0
LINE
8
Layer 1
10
16.686294
20
89.452625
11
16.702314
21
89.474329
0
LINE
8
Layer 1
10
16.702314
20
89.474329
11
17.011338
21
89.465026
0
LINE
8
Layer 1
10
17.011338
20
89.465026
11
16.347814
21
90.020031
0
LINE
8
Layer 1
10
16.347814
20
90.020031
11
16.461502
21
89.659330
0
LINE
8
Layer 1
10
16.461502
20
89.659330
11
16.441348
21
89.631425
0
LINE
8
Layer 1
10
16.441348
20
89.631425
11
16.116304
21
89.184425
0
LINE
8
Layer 1
10
16.116304
20
89.184425
11
13.185220
21
91.329510
0
LINE
8
Layer 1
10
13.185220
20
91.329510
11
13.185220
21
91.329510
0
LINE
8
Layer 1
10
115.028998
20
91.187916
11
114.769067
21
91.183783
0
LINE
8
Layer 1
10
114.769067
20
91.183783
11
114.090554
21
90.028299
0
LINE
8
Layer 1
10
114.090554
20
90.028299
11
114.224915
21
89.798855
0
LINE
8
Layer 1
10
114.224915
20
89.798855
11
115.612425
21
89.829862
0
LINE
8
Layer 1
10
115.612425
20
89.829862
11
115.737480
21
90.062407
0
LINE
8
Layer 1
10
115.737480
20
90.062407
11
115.028998
21
91.187916
0
LINE
8
Layer 1
10
115.028998
20
91.187916
11
115.028998
21
91.187916
0
LINE
8
Layer 1
10
13.128376
20
90.994646
11
15.937503
21
88.938961
0
LINE
8
Layer 1
10
15.937503
20
88.938961
11
14.917412
21
87.536464
0
LINE
8
Layer 1
10
14.917412
20
87.536464
11
12.060743
21
89.531690
0
LINE
8
Layer 1
10
12.060743
20
89.531690
11
13.128376
21
90.994646
0
LINE
8
Layer 1
10
13.128376
20
90.994646
11
13.128376
21
90.994646
0
LINE
8
Layer 1
10
114.904459
20
90.815846
11
115.338023
21
90.127518
0
LINE
8
Layer 1
10
115.338023
20
90.127518
11
114.490014
21
90.108915
0
LINE
8
Layer 1
10
114.490014
20
90.108915
11
114.904459
21
90.815846
0
LINE
8
Layer 1
10
114.904459
20
90.815846
11
114.904459
21
90.815846
0
LINE
8
Layer 1
10
117.245397
20
88.510564
11
116.989082
21
88.501780
0
LINE
8
Layer 1
10
116.989082
20
88.501780
11
116.325558
21
87.376786
0
LINE
8
Layer 1
10
116.325558
20
87.376786
11
116.458884
21
87.147858
0
LINE
8
Layer 1
10
116.458884
20
87.147858
11
117.876366
21
87.163360
0
LINE
8
Layer 1
10
117.876366
20
87.163360
11
118.000390
21
87.400040
0
LINE
8
Layer 1
10
118.000390
20
87.400040
11
117.245397
21
88.510564
0
LINE
8
Layer 1
10
117.245397
20
88.510564
11
117.245397
21
88.510564
0
LINE
8
Layer 1
10
117.129126
20
88.141595
11
117.590596
21
87.463601
0
LINE
8
Layer 1
10
117.590596
20
87.463601
11
116.724499
21
87.454298
0
LINE
8
Layer 1
10
116.724499
20
87.454298
11
117.129126
21
88.141595
0
LINE
8
Layer 1
10
117.129126
20
88.141595
11
117.129126
21
88.141595
0
LINE
8
Layer 1
10
121.515415
20
83.040104
11
120.928371
21
82.792057
0
LINE
8
Layer 1
10
120.928371
20
82.792057
11
121.127327
21
82.699556
0
LINE
8
Layer 1
10
121.127327
20
82.699556
11
121.160400
21
82.595171
0
LINE
8
Layer 1
10
121.160400
20
82.595171
11
121.393976
21
81.858265
0
LINE
8
Layer 1
10
121.393976
20
81.858265
11
120.064343
21
81.457257
0
LINE
8
Layer 1
10
120.064343
20
81.457257
11
119.983728
21
81.397829
0
LINE
8
Layer 1
10
119.983728
20
81.397829
11
119.263358
21
80.345183
0
LINE
8
Layer 1
10
119.263358
20
80.345183
11
119.244239
21
80.307459
0
LINE
8
Layer 1
10
119.244239
20
80.307459
11
118.834961
21
79.070327
0
LINE
8
Layer 1
10
118.834961
20
79.070327
11
117.489826
21
79.060508
0
LINE
8
Layer 1
10
117.489826
20
79.060508
11
117.219560
21
79.616545
0
LINE
8
Layer 1
10
117.219560
20
79.616545
11
117.654156
21
80.128659
0
LINE
8
Layer 1
10
117.654156
20
80.128659
11
117.685163
21
80.164830
0
LINE
8
Layer 1
10
117.685163
20
80.164830
11
117.915122
21
80.204623
0
LINE
8
Layer 1
10
117.915122
20
80.204623
11
117.471740
21
80.647488
0
LINE
8
Layer 1
10
117.471740
20
80.647488
11
117.466572
21
80.376187
0
LINE
8
Layer 1
10
117.466572
20
80.376187
11
117.422646
21
80.325027
0
LINE
8
Layer 1
10
117.422646
20
80.325027
11
116.924487
21
79.737468
0
LINE
8
Layer 1
10
116.924487
20
79.737468
11
116.903817
21
79.573138
0
LINE
8
Layer 1
10
116.903817
20
79.573138
11
117.257800
21
78.842434
0
LINE
8
Layer 1
10
117.257800
20
78.842434
11
117.395775
21
78.756135
0
LINE
8
Layer 1
10
117.395775
20
78.756135
11
118.946583
21
78.768020
0
LINE
8
Layer 1
10
118.946583
20
78.768020
11
119.089725
21
78.871371
0
LINE
8
Layer 1
10
119.089725
20
78.871371
11
119.525875
21
80.191704
0
LINE
8
Layer 1
10
119.525875
20
80.191704
11
120.203353
21
81.182340
0
LINE
8
Layer 1
10
120.203353
20
81.182340
11
121.414645
21
81.547173
0
LINE
8
Layer 1
10
121.414645
20
81.547173
11
121.298374
21
80.689863
0
LINE
8
Layer 1
10
121.298374
20
80.689863
11
121.283388
21
80.578760
0
LINE
8
Layer 1
10
121.283388
20
80.578760
11
121.116474
21
80.419597
0
LINE
8
Layer 1
10
121.116474
20
80.419597
11
121.681297
21
80.337431
0
LINE
8
Layer 1
10
121.681297
20
80.337431
11
121.580528
21
80.509513
0
LINE
8
Layer 1
10
121.580528
20
80.509513
11
121.598615
21
80.649557
0
LINE
8
Layer 1
10
121.598615
20
80.649557
11
121.743308
21
81.712537
0
LINE
8
Layer 1
10
121.743308
20
81.712537
11
121.737625
21
81.778683
0
LINE
8
Layer 1
10
121.737625
20
81.778683
11
121.449269
21
82.687155
0
LINE
8
Layer 1
10
121.449269
20
82.687155
11
121.418781
21
82.783789
0
LINE
8
Layer 1
10
121.418781
20
82.783789
11
121.515415
21
83.040104
0
LINE
8
Layer 1
10
121.515415
20
83.040104
11
121.515415
21
83.040104
0
LINE
8
Layer 1
10
12.312923
20
81.822093
11
10.474278
21
80.968916
0
LINE
8
Layer 1
10
10.474278
20
80.968916
11
10.444823
21
80.950830
0
LINE
8
Layer 1
10
10.444823
20
80.950830
11
9.074366
21
79.877512
0
LINE
8
Layer 1
10
9.074366
20
79.877512
11
8.094582
21
81.018526
0
LINE
8
Layer 1
10
8.094582
20
81.018526
11
8.059959
21
81.059348
0
LINE
8
Layer 1
10
8.059959
20
81.059348
11
8.101300
21
81.296544
0
LINE
8
Layer 1
10
8.101300
20
81.296544
11
7.591771
21
80.897603
0
LINE
8
Layer 1
10
7.591771
20
80.897603
11
7.818630
21
80.874349
0
LINE
8
Layer 1
10
7.818630
20
80.874349
11
7.864105
21
80.821120
0
LINE
8
Layer 1
10
7.864105
20
80.821120
11
8.938974
21
79.569002
0
LINE
8
Layer 1
10
8.938974
20
79.569002
11
9.147746
21
79.548333
0
LINE
8
Layer 1
10
9.147746
20
79.548333
11
10.473762
21
80.587544
0
LINE
8
Layer 1
10
10.473762
20
80.587544
11
10.406582
21
80.405127
0
LINE
8
Layer 1
10
10.406582
20
80.405127
11
10.927480
21
79.862526
0
LINE
8
Layer 1
10
10.927480
20
79.862526
11
10.970371
21
79.831003
0
LINE
8
Layer 1
10
10.970371
20
79.831003
11
11.767738
21
79.442913
0
LINE
8
Layer 1
10
11.767738
20
79.442913
11
11.827682
21
79.427411
0
LINE
8
Layer 1
10
11.827682
20
79.427411
11
13.029158
21
79.372116
0
LINE
8
Layer 1
10
13.029158
20
79.372116
11
13.218810
21
79.169027
0
LINE
8
Layer 1
10
13.218810
20
79.169027
11
13.240514
21
79.834620
0
LINE
8
Layer 1
10
13.240514
20
79.834620
11
13.080317
21
79.673907
0
LINE
8
Layer 1
10
13.080317
20
79.673907
11
13.048795
21
79.675457
0
LINE
8
Layer 1
10
13.048795
20
79.675457
11
11.872641
21
79.729200
0
LINE
8
Layer 1
10
11.872641
20
79.729200
11
11.126951
21
80.092485
0
LINE
8
Layer 1
10
11.126951
20
80.092485
11
10.840664
21
80.390657
0
LINE
8
Layer 1
10
10.840664
20
80.390657
11
13.223461
21
80.635603
0
LINE
8
Layer 1
10
13.223461
20
80.635603
11
13.319579
21
80.889335
0
LINE
8
Layer 1
10
13.319579
20
80.889335
11
12.488623
21
81.786951
0
LINE
8
Layer 1
10
12.488623
20
81.786951
11
12.312923
21
81.822093
0
LINE
8
Layer 1
10
12.312923
20
81.822093
11
12.312923
21
81.822093
0
LINE
8
Layer 1
10
12.341345
20
81.499633
11
12.890148
21
80.906903
0
LINE
8
Layer 1
10
12.890148
20
80.906903
11
10.576598
21
80.668160
0
LINE
8
Layer 1
10
10.576598
20
80.668160
11
10.618972
21
80.701232
0
LINE
8
Layer 1
10
10.618972
20
80.701232
11
12.341345
21
81.499633
0
LINE
8
Layer 1
10
12.341345
20
81.499633
11
12.341345
21
81.499633
0
LINE
8
Layer 1
10
8.913652
20
74.583785
11
6.756164
21
72.780279
0
LINE
8
Layer 1
10
6.756164
20
72.780279
11
6.814042
21
72.517762
0
LINE
8
Layer 1
10
6.814042
20
72.517762
11
9.387008
21
71.829434
0
LINE
8
Layer 1
10
9.387008
20
71.829434
11
9.956481
21
68.997052
0
LINE
8
Layer 1
10
9.956481
20
68.997052
11
10.216930
21
68.923672
0
LINE
8
Layer 1
10
10.216930
20
68.923672
11
12.266931
21
71.143172
0
LINE
8
Layer 1
10
12.266931
20
71.143172
11
12.195101
21
71.392769
0
LINE
8
Layer 1
10
12.195101
20
71.392769
11
9.647456
21
72.073863
0
LINE
8
Layer 1
10
9.647456
20
72.073863
11
9.160148
21
74.498002
0
LINE
8
Layer 1
10
9.160148
20
74.498002
11
8.913652
21
74.583785
0
LINE
8
Layer 1
10
8.913652
20
74.583785
11
8.913652
21
74.583785
0
LINE
8
Layer 1
10
8.912619
20
74.187942
11
9.320345
21
72.161713
0
LINE
8
Layer 1
10
9.320345
20
72.161713
11
7.174743
21
72.735321
0
LINE
8
Layer 1
10
7.174743
20
72.735321
11
8.912619
21
74.187942
0
LINE
8
Layer 1
10
8.912619
20
74.187942
11
8.912619
21
74.187942
0
LINE
8
Layer 1
10
119.564633
20
73.428817
11
119.446809
21
73.390061
0
LINE
8
Layer 1
10
119.446809
20
73.390061
11
118.737293
21
72.742555
0
LINE
8
Layer 1
10
118.737293
20
72.742555
11
118.689234
21
72.611814
0
LINE
8
Layer 1
10
118.689234
20
72.611814
11
118.812741
21
71.610327
0
LINE
8
Layer 1
10
118.812741
20
71.610327
11
118.854083
21
71.523510
0
LINE
8
Layer 1
10
118.854083
20
71.523510
11
119.810095
21
70.537009
0
LINE
8
Layer 1
10
119.810095
20
70.537009
11
119.819398
21
70.531839
0
LINE
8
Layer 1
10
119.819398
20
70.531839
11
119.832317
21
70.471379
0
LINE
8
Layer 1
10
119.832317
20
70.471379
11
120.079329
21
69.330881
0
LINE
8
Layer 1
10
120.079329
20
69.330881
11
120.334610
21
69.255951
0
LINE
8
Layer 1
10
120.334610
20
69.255951
11
121.336099
21
70.257438
0
LINE
8
Layer 1
10
121.336099
20
70.257438
11
121.260134
21
70.513752
0
LINE
8
Layer 1
10
121.260134
20
70.513752
11
119.996131
21
70.780920
0
LINE
8
Layer 1
10
119.996131
20
70.780920
11
119.106781
21
71.698693
0
LINE
8
Layer 1
10
119.106781
20
71.698693
11
118.999810
21
72.570988
0
LINE
8
Layer 1
10
118.999810
20
72.570988
11
119.600807
21
73.119792
0
LINE
8
Layer 1
10
119.600807
20
73.119792
11
120.565604
21
73.019541
0
LINE
8
Layer 1
10
120.565604
20
73.019541
11
120.716498
21
73.003521
0
LINE
8
Layer 1
10
120.716498
20
73.003521
11
120.748021
21
73.305828
0
LINE
8
Layer 1
10
120.748021
20
73.305828
11
120.597126
21
73.320814
0
LINE
8
Layer 1
10
120.597126
20
73.320814
11
119.564633
21
73.428817
0
LINE
8
Layer 1
10
119.564633
20
73.428817
11
119.564633
21
73.428817
0
LINE
8
Layer 1
10
122.378926
20
73.243299
11
121.206908
21
73.073283
0
LINE
8
Layer 1
10
121.206908
20
73.073283
11
121.103554
21
72.838156
0
LINE
8
Layer 1
10
121.103554
20
72.838156
11
121.797053
21
71.821166
0
LINE
8
Layer 1
10
121.797053
20
71.821166
11
122.063702
21
71.849587
0
LINE
8
Layer 1
10
122.063702
20
71.849587
11
122.541192
21
73.036594
0
LINE
8
Layer 1
10
122.541192
20
73.036594
11
122.378926
21
73.243299
0
LINE
8
Layer 1
10
122.378926
20
73.243299
11
122.378926
21
73.243299
0
LINE
8
Layer 1
10
122.161370
20
72.905337
11
121.888003
21
72.226308
0
LINE
8
Layer 1
10
121.888003
20
72.226308
11
121.491128
21
72.808184
0
LINE
8
Layer 1
10
121.491128
20
72.808184
11
122.161370
21
72.905337
0
LINE
8
Layer 1
10
122.161370
20
72.905337
11
122.161370
21
72.905337
0
LINE
8
Layer 1
10
9.714119
20
71.741584
11
11.874191
21
71.163843
0
LINE
8
Layer 1
10
11.874191
20
71.163843
11
10.195743
21
69.347418
0
LINE
8
Layer 1
10
10.195743
20
69.347418
11
9.714119
21
71.741584
0
LINE
8
Layer 1
10
9.714119
20
71.741584
11
9.714119
21
71.741584
0
LINE
8
Layer 1
10
120.150127
20
70.438307
11
120.924238
21
70.274493
0
LINE
8
Layer 1
10
120.924238
20
70.274493
11
120.316523
21
69.666777
0
LINE
8
Layer 1
10
120.316523
20
69.666777
11
120.150127
21
70.438307
0
LINE
8
Layer 1
10
120.150127
20
70.438307
11
120.150127
21
70.438307
0
LINE
8
Layer 1
10
8.924504
20
65.459804
11
8.917270
21
65.159566
0
LINE
8
Layer 1
10
8.917270
20
65.159566
11
7.350959
21
64.727034
0
LINE
8
Layer 1
10
7.350959
20
64.727034
11
7.145287
21
65.016940
0
LINE
8
Layer 1
10
7.145287
20
65.016940
11
6.982506
21
64.334295
0
LINE
8
Layer 1
10
6.982506
20
64.334295
11
7.282229
21
64.456768
0
LINE
8
Layer 1
10
7.282229
20
64.456768
11
7.967975
21
63.352443
0
LINE
8
Layer 1
10
7.967975
20
63.352443
11
8.205169
21
62.150966
0
LINE
8
Layer 1
10
8.205169
20
62.150966
11
7.563866
21
60.663206
0
LINE
8
Layer 1
10
7.563866
20
60.663206
11
7.324087
21
60.676641
0
LINE
8
Layer 1
10
7.324087
20
60.676641
11
7.713727
21
60.137141
0
LINE
8
Layer 1
10
7.713727
20
60.137141
11
7.760752
21
60.423943
0
LINE
8
Layer 1
10
7.760752
20
60.423943
11
10.379711
21
60.994450
0
LINE
8
Layer 1
10
10.379711
20
60.994450
11
10.520787
21
60.731418
0
LINE
8
Layer 1
10
10.520787
20
60.731418
11
10.787437
21
61.355151
0
LINE
8
Layer 1
10
10.787437
20
61.355151
11
10.462909
21
61.286423
0
LINE
8
Layer 1
10
10.462909
20
61.286423
11
9.362720
21
62.457925
0
LINE
8
Layer 1
10
9.362720
20
62.457925
11
9.019072
21
63.656817
0
LINE
8
Layer 1
10
9.019072
20
63.656817
11
9.116224
21
64.967847
0
LINE
8
Layer 1
10
9.116224
20
64.967847
11
9.418014
21
65.006087
0
LINE
8
Layer 1
10
9.418014
20
65.006087
11
8.924504
21
65.459804
0
LINE
8
Layer 1
10
8.924504
20
65.459804
11
8.924504
21
65.459804
0
LINE
8
Layer 1
10
8.799964
20
64.812301
11
8.714181
21
63.652684
0
LINE
8
Layer 1
10
8.714181
20
63.652684
11
8.719349
21
63.599974
0
LINE
8
Layer 1
10
8.719349
20
63.599974
11
8.925538
21
62.880120
0
LINE
8
Layer 1
10
8.925538
20
62.880120
11
8.397922
21
62.740079
0
LINE
8
Layer 1
10
8.397922
20
62.740079
11
8.259946
21
63.438226
0
LINE
8
Layer 1
10
8.259946
20
63.438226
11
8.240309
21
63.489386
0
LINE
8
Layer 1
10
8.240309
20
63.489386
11
7.620709
21
64.486740
0
LINE
8
Layer 1
10
7.620709
20
64.486740
11
8.799964
21
64.812301
0
LINE
8
Layer 1
10
8.799964
20
64.812301
11
8.799964
21
64.812301
0
LINE
8
Layer 1
10
123.275513
20
64.239209
11
123.282747
21
63.930184
0
LINE
8
Layer 1
10
123.282747
20
63.930184
11
123.178877
21
63.872306
0
LINE
8
Layer 1
10
123.178877
20
63.872306
11
121.708169
21
63.049104
0
LINE
8
Layer 1
10
121.708169
20
63.049104
11
119.130551
21
62.233649
0
LINE
8
Layer 1
10
119.130551
20
62.233649
11
119.126418
21
61.946330
0
LINE
8
Layer 1
10
119.126418
20
61.946330
11
121.917456
21
60.960346
0
LINE
8
Layer 1
10
121.917456
20
60.960346
11
122.118994
21
61.117958
0
LINE
8
Layer 1
10
122.118994
20
61.117958
11
121.946912
21
62.834130
0
LINE
8
Layer 1
10
121.946912
20
62.834130
11
123.327189
21
63.607207
0
LINE
8
Layer 1
10
123.327189
20
63.607207
11
123.453795
21
63.677489
0
LINE
8
Layer 1
10
123.453795
20
63.677489
11
123.773673
21
63.473881
0
LINE
8
Layer 1
10
123.773673
20
63.473881
11
123.275513
21
64.239209
0
LINE
8
Layer 1
10
123.275513
20
64.239209
11
123.275513
21
64.239209
0
LINE
8
Layer 1
10
121.602232
20
63.702293
11
121.461154
21
63.649065
0
LINE
8
Layer 1
10
121.461154
20
63.649065
11
120.928890
21
63.450111
0
LINE
8
Layer 1
10
120.928890
20
63.450111
11
120.786779
21
63.396369
0
LINE
8
Layer 1
10
120.786779
20
63.396369
11
120.893232
21
63.112149
0
LINE
8
Layer 1
10
120.893232
20
63.112149
11
121.035342
21
63.165375
0
LINE
8
Layer 1
10
121.035342
20
63.165375
11
121.567609
21
63.365363
0
LINE
8
Layer 1
10
121.567609
20
63.365363
11
121.709200
21
63.418589
0
LINE
8
Layer 1
10
121.709200
20
63.418589
11
121.602232
21
63.702293
0
LINE
8
Layer 1
10
121.602232
20
63.702293
11
121.602232
21
63.702293
0
LINE
8
Layer 1
10
121.653908
20
62.713205
11
121.792917
21
61.326214
0
LINE
8
Layer 1
10
121.792917
20
61.326214
11
119.654549
21
62.081204
0
LINE
8
Layer 1
10
119.654549
20
62.081204
11
121.653908
21
62.713205
0
LINE
8
Layer 1
10
121.653908
20
62.713205
11
121.653908
21
62.713205
0
LINE
8
Layer 1
10
9.102788
20
62.299278
11
9.115190
21
62.278091
0
LINE
8
Layer 1
10
9.115190
20
62.278091
11
10.088256
21
61.241981
0
LINE
8
Layer 1
10
10.088256
20
61.241981
11
7.940070
21
60.772759
0
LINE
8
Layer 1
10
7.940070
20
60.772759
11
8.501791
21
62.074486
0
LINE
8
Layer 1
10
8.501791
20
62.074486
11
8.509026
21
62.142182
0
LINE
8
Layer 1
10
8.509026
20
62.142182
11
9.102788
21
62.299278
0
LINE
8
Layer 1
10
9.102788
20
62.299278
11
9.102788
21
62.299278
0
LINE
8
Layer 1
10
11.647332
20
56.180281
11
10.440172
21
55.637679
0
LINE
8
Layer 1
10
10.440172
20
55.637679
11
10.354389
21
55.533293
0
LINE
8
Layer 1
10
10.354389
20
55.533293
11
10.088256
21
54.381426
0
LINE
8
Layer 1
10
10.088256
20
54.381426
11
10.084639
21
54.334401
0
LINE
8
Layer 1
10
10.084639
20
54.334401
11
10.120812
21
53.903938
0
LINE
8
Layer 1
10
10.120812
20
53.903938
11
9.673295
21
53.878099
0
LINE
8
Layer 1
10
9.673295
20
53.878099
11
9.594230
21
53.850193
0
LINE
8
Layer 1
10
9.594230
20
53.850193
11
9.453153
21
53.749424
0
LINE
8
Layer 1
10
9.453153
20
53.749424
11
9.446436
21
53.749424
0
LINE
8
Layer 1
10
9.446436
20
53.749424
11
9.446436
21
53.744257
0
LINE
8
Layer 1
10
9.446436
20
53.744257
11
9.284172
21
53.628502
0
LINE
8
Layer 1
10
9.284172
20
53.628502
11
9.225261
21
53.586645
0
LINE
8
Layer 1
10
9.225261
20
53.586645
11
8.991167
21
53.715317
0
LINE
8
Layer 1
10
8.991167
20
53.715317
11
8.807199
21
53.685864
0
LINE
8
Layer 1
10
8.807199
20
53.685864
11
8.297670
21
53.143262
0
LINE
8
Layer 1
10
8.297670
20
53.143262
11
8.256846
21
53.039392
0
LINE
8
Layer 1
10
8.256846
20
53.039392
11
8.256846
21
52.674040
0
LINE
8
Layer 1
10
8.256846
20
52.674040
11
8.281650
21
52.590323
0
LINE
8
Layer 1
10
8.281650
20
52.590323
11
8.610829
21
52.092164
0
LINE
8
Layer 1
10
8.610829
20
52.092164
11
8.514194
21
51.707690
0
LINE
8
Layer 1
10
8.514194
20
51.707690
11
7.702358
21
51.784173
0
LINE
8
Layer 1
10
7.702358
20
51.784173
11
7.551463
21
51.798125
0
LINE
8
Layer 1
10
7.551463
20
51.798125
11
7.523041
21
51.495817
0
LINE
8
Layer 1
10
7.523041
20
51.495817
11
7.673936
21
51.481866
0
LINE
8
Layer 1
10
7.673936
20
51.481866
11
8.615480
21
51.392982
0
LINE
8
Layer 1
10
8.615480
20
51.392982
11
8.777227
21
51.507705
0
LINE
8
Layer 1
10
8.777227
20
51.507705
11
8.920887
21
52.083380
0
LINE
8
Layer 1
10
8.920887
20
52.083380
11
8.900733
21
52.203783
0
LINE
8
Layer 1
10
8.900733
20
52.203783
11
8.560186
21
52.718998
0
LINE
8
Layer 1
10
8.560186
20
52.718998
11
8.560186
21
52.979964
0
LINE
8
Layer 1
10
8.560186
20
52.979964
11
8.947759
21
53.392856
0
LINE
8
Layer 1
10
8.947759
20
53.392856
11
9.509481
21
53.084350
0
LINE
8
Layer 1
10
9.509481
20
53.084350
11
9.734273
21
53.212506
0
LINE
8
Layer 1
10
9.734273
20
53.212506
11
9.745125
21
53.578377
0
LINE
8
Layer 1
10
9.745125
20
53.578377
11
10.466010
21
53.619718
0
LINE
8
Layer 1
10
10.466010
20
53.619718
11
10.591584
21
53.699815
0
LINE
8
Layer 1
10
10.591584
20
53.699815
11
10.779686
21
54.054314
0
LINE
8
Layer 1
10
10.779686
20
54.054314
11
10.796222
21
54.102373
0
LINE
8
Layer 1
10
10.796222
20
54.102373
11
10.957452
21
55.162255
0
LINE
8
Layer 1
10
10.957452
20
55.162255
11
11.885043
21
55.361727
0
LINE
8
Layer 1
10
11.885043
20
55.361727
11
12.003899
21
55.492984
0
LINE
8
Layer 1
10
12.003899
20
55.492984
11
12.037488
21
55.792190
0
LINE
8
Layer 1
10
12.037488
20
55.792190
11
12.008033
21
55.901228
0
LINE
8
Layer 1
10
12.008033
20
55.901228
11
11.829750
21
56.133772
0
LINE
8
Layer 1
10
11.829750
20
56.133772
11
11.647332
21
56.180281
0
LINE
8
Layer 1
10
11.647332
20
56.180281
11
11.647332
21
56.180281
0
LINE
8
Layer 1
10
11.661801
20
55.854203
11
11.728980
21
55.765835
0
LINE
8
Layer 1
10
11.728980
20
55.765835
11
11.714511
21
55.634578
0
LINE
8
Layer 1
10
11.714511
20
55.634578
11
10.791571
21
55.437175
0
LINE
8
Layer 1
10
10.791571
20
55.437175
11
10.673232
21
55.311602
0
LINE
8
Layer 1
10
10.673232
20
55.311602
11
10.500116
21
54.174204
0
LINE
8
Layer 1
10
10.500116
20
54.174204
11
10.416401
21
54.016074
0
LINE
8
Layer 1
10
10.416401
20
54.016074
11
10.389529
21
54.336468
0
LINE
8
Layer 1
10
10.389529
20
54.336468
11
10.632925
21
55.391183
0
LINE
8
Layer 1
10
10.632925
20
55.391183
11
11.661801
21
55.854203
0
LINE
8
Layer 1
10
11.661801
20
55.854203
11
11.661801
21
55.854203
0
LINE
8
Layer 1
10
121.834258
20
55.407204
11
121.576909
21
55.393249
0
LINE
8
Layer 1
10
121.576909
20
55.393249
11
121.146446
21
54.605186
0
LINE
8
Layer 1
10
121.146446
20
54.605186
11
120.822953
21
54.442404
0
LINE
8
Layer 1
10
120.822953
20
54.442404
11
119.842133
21
54.459457
0
LINE
8
Layer 1
10
119.842133
20
54.459457
11
120.026619
21
54.689416
0
LINE
8
Layer 1
10
120.026619
20
54.689416
11
119.284030
21
55.188094
0
LINE
8
Layer 1
10
119.284030
20
55.188094
11
119.129000
21
54.977256
0
LINE
8
Layer 1
10
119.129000
20
54.977256
11
119.558948
21
54.464627
0
LINE
8
Layer 1
10
119.558948
20
54.464627
11
118.333701
21
54.486330
0
LINE
8
Layer 1
10
118.333701
20
54.486330
11
118.213813
21
54.430003
0
LINE
8
Layer 1
10
118.213813
20
54.430003
11
117.847945
21
53.975767
0
LINE
8
Layer 1
10
117.847945
20
53.975767
11
117.826757
21
53.820221
0
LINE
8
Layer 1
10
117.826757
20
53.820221
11
118.536273
21
52.191898
0
LINE
8
Layer 1
10
118.536273
20
52.191898
11
118.671147
21
52.100432
0
LINE
8
Layer 1
10
118.671147
20
52.100432
11
119.065439
21
52.090613
0
LINE
8
Layer 1
10
119.065439
20
52.090613
11
119.332089
21
51.823445
0
LINE
8
Layer 1
10
119.332089
20
51.823445
11
119.439060
21
51.715958
0
LINE
8
Layer 1
10
119.439060
20
51.715958
11
119.653515
21
51.930932
0
LINE
8
Layer 1
10
119.653515
20
51.930932
11
119.546547
21
52.037903
0
LINE
8
Layer 1
10
119.546547
20
52.037903
11
119.236487
21
52.348479
0
LINE
8
Layer 1
10
119.236487
20
52.348479
11
119.132617
21
52.392402
0
LINE
8
Layer 1
10
119.132617
20
52.392402
11
118.775017
21
52.401705
0
LINE
8
Layer 1
10
118.775017
20
52.401705
11
118.141981
21
53.856395
0
LINE
8
Layer 1
10
118.141981
20
53.856395
11
118.403463
21
54.181438
0
LINE
8
Layer 1
10
118.403463
20
54.181438
11
120.854476
21
54.138547
0
LINE
8
Layer 1
10
120.854476
20
54.138547
11
120.925270
21
54.154567
0
LINE
8
Layer 1
10
120.925270
20
54.154567
11
121.204323
21
54.294611
0
LINE
8
Layer 1
10
121.204323
20
54.294611
11
121.944846
21
53.017688
0
LINE
8
Layer 1
10
121.944846
20
53.017688
11
122.194959
21
52.999601
0
LINE
8
Layer 1
10
122.194959
20
52.999601
11
122.826444
21
53.797483
0
LINE
8
Layer 1
10
122.826444
20
53.797483
11
122.831612
21
53.978352
0
LINE
8
Layer 1
10
122.831612
20
53.978352
11
121.834258
21
55.407204
0
LINE
8
Layer 1
10
121.834258
20
55.407204
11
121.834258
21
55.407204
0
LINE
8
Layer 1
10
121.725737
20
55.033065
11
122.518454
21
53.897736
0
LINE
8
Layer 1
10
122.518454
20
53.897736
11
122.095224
21
53.362884
0
LINE
8
Layer 1
10
122.095224
20
53.362884
11
121.442551
21
54.488397
0
LINE
8
Layer 1
10
121.442551
20
54.488397
11
121.435317
21
54.501316
0
LINE
8
Layer 1
10
121.435317
20
54.501316
11
121.725737
21
55.033065
0
LINE
8
Layer 1
10
121.725737
20
55.033065
11
121.725737
21
55.033065
0
LINE
8
Layer 1
10
12.325842
20
47.447491
11
12.074695
21
47.430439
0
LINE
8
Layer 1
10
12.074695
20
47.430439
11
11.597722
21
46.598966
0
LINE
8
Layer 1
10
11.597722
20
46.598966
11
11.726913
21
46.372623
0
LINE
8
Layer 1
10
11.726913
20
46.372623
11
12.867927
21
46.350919
0
LINE
8
Layer 1
10
12.867927
20
46.350919
11
12.991434
21
46.594833
0
LINE
8
Layer 1
10
12.991434
20
46.594833
11
12.325842
21
47.447491
0
LINE
8
Layer 1
10
12.325842
20
47.447491
11
12.325842
21
47.447491
0
LINE
8
Layer 1
10
12.226107
20
47.083690
11
12.556836
21
46.659428
0
LINE
8
Layer 1
10
12.556836
20
46.659428
11
11.989429
21
46.670279
0
LINE
8
Layer 1
10
11.989429
20
46.670279
11
12.226107
21
47.083690
0
LINE
8
Layer 1
10
12.226107
20
47.083690
11
12.226107
21
47.083690
0
LINE
8
Layer 1
10
118.483047
20
46.678031
11
118.251019
21
46.596899
0
LINE
8
Layer 1
10
118.251019
20
46.596899
11
117.381305
21
43.715942
0
LINE
8
Layer 1
10
117.381305
20
43.715942
11
115.622760
21
45.895135
0
LINE
8
Layer 1
10
115.622760
20
45.895135
11
115.600021
21
45.923557
0
LINE
8
Layer 1
10
115.600021
20
45.923557
11
115.638261
21
46.176770
0
LINE
8
Layer 1
10
115.638261
20
46.176770
11
115.117364
21
45.744757
0
LINE
8
Layer 1
10
115.117364
20
45.744757
11
115.359211
21
45.739071
0
LINE
8
Layer 1
10
115.359211
20
45.739071
11
115.387117
21
45.704447
0
LINE
8
Layer 1
10
115.387117
20
45.704447
11
117.325497
21
43.300465
0
LINE
8
Layer 1
10
117.325497
20
43.300465
11
117.589045
21
43.352141
0
LINE
8
Layer 1
10
117.589045
20
43.352141
11
118.480978
21
46.310096
0
LINE
8
Layer 1
10
118.480978
20
46.310096
11
120.226607
21
45.099836
0
LINE
8
Layer 1
10
120.226607
20
45.099836
11
120.229192
21
45.098285
0
LINE
8
Layer 1
10
120.229192
20
45.098285
11
120.201802
21
44.758770
0
LINE
8
Layer 1
10
120.201802
20
44.758770
11
120.711847
21
45.390255
0
LINE
8
Layer 1
10
120.711847
20
45.390255
11
120.411093
21
45.340130
0
LINE
8
Layer 1
10
120.411093
20
45.340130
11
120.399205
21
45.348398
0
LINE
8
Layer 1
10
120.399205
20
45.348398
11
118.483047
21
46.678031
0
LINE
8
Layer 1
10
118.483047
20
46.678031
11
118.483047
21
46.678031
0
LINE
8
Layer 1
10
10.248970
20
46.598966
11
9.949246
21
46.548840
0
LINE
8
Layer 1
10
9.949246
20
46.548840
11
9.974568
21
46.398978
0
LINE
8
Layer 1
10
9.974568
20
46.398978
11
10.362657
21
44.085427
0
LINE
8
Layer 1
10
10.362657
20
44.085427
11
10.327001
21
44.049772
0
LINE
8
Layer 1
10
10.327001
20
44.049772
11
9.983353
21
43.706124
0
LINE
8
Layer 1
10
9.983353
20
43.706124
11
9.962682
21
43.518537
0
LINE
8
Layer 1
10
9.962682
20
43.518537
11
10.261372
21
43.042081
0
LINE
8
Layer 1
10
10.261372
20
43.042081
11
10.314598
21
42.991440
0
LINE
8
Layer 1
10
10.314598
20
42.991440
11
10.679950
21
42.781118
0
LINE
8
Layer 1
10
10.679950
20
42.781118
11
10.841697
21
42.787835
0
LINE
8
Layer 1
10
10.841697
20
42.787835
11
11.384816
21
43.164038
0
LINE
8
Layer 1
10
11.384816
20
43.164038
11
11.444761
21
43.205895
0
LINE
8
Layer 1
10
11.444761
20
43.205895
11
13.409496
21
43.292713
0
LINE
8
Layer 1
10
13.409496
20
43.292713
11
13.544888
21
43.390381
0
LINE
8
Layer 1
10
13.544888
20
43.390381
11
14.142267
21
44.963409
0
LINE
8
Layer 1
10
14.142267
20
44.963409
11
14.196527
21
45.105003
0
LINE
8
Layer 1
10
14.196527
20
45.105003
11
13.913340
21
45.213006
0
LINE
8
Layer 1
10
13.913340
20
45.213006
11
13.859597
21
45.071411
0
LINE
8
Layer 1
10
13.859597
20
45.071411
11
13.296841
21
43.591403
0
LINE
8
Layer 1
10
13.296841
20
43.591403
11
10.772451
21
43.479781
0
LINE
8
Layer 1
10
10.772451
20
43.479781
11
10.273774
21
46.449622
0
LINE
8
Layer 1
10
10.273774
20
46.449622
11
10.248970
21
46.598966
0
LINE
8
Layer 1
10
10.248970
20
46.598966
11
10.248970
21
46.598966
0
LINE
8
Layer 1
10
10.424152
20
43.718009
11
10.494949
21
43.296845
0
LINE
8
Layer 1
10
10.494949
20
43.296845
11
10.651528
21
43.170756
0
LINE
8
Layer 1
10
10.651528
20
43.170756
11
10.875804
21
43.180574
0
LINE
8
Layer 1
10
10.875804
20
43.180574
11
10.747646
21
43.091690
0
LINE
8
Layer 1
10
10.747646
20
43.091690
11
10.497533
21
43.235870
0
LINE
8
Layer 1
10
10.497533
20
43.235870
11
10.283593
21
43.576933
0
LINE
8
Layer 1
10
10.283593
20
43.576933
11
10.424152
21
43.718009
0
LINE
8
Layer 1
10
10.424152
20
43.718009
11
10.424152
21
43.718009
0
LINE
8
Layer 1
10
112.454997
20
39.671749
11
112.629148
21
39.392698
0
LINE
8
Layer 1
10
112.629148
20
39.392698
11
112.617263
21
39.338438
0
LINE
8
Layer 1
10
112.617263
20
39.338438
11
111.686053
21
35.095807
0
LINE
8
Layer 1
10
111.686053
20
35.095807
11
111.859685
21
34.914425
0
LINE
8
Layer 1
10
111.859685
20
34.914425
11
116.274914
21
35.651328
0
LINE
8
Layer 1
10
116.274914
20
35.651328
11
116.542082
21
35.451340
0
LINE
8
Layer 1
10
116.542082
20
35.451340
11
116.398422
21
36.260075
0
LINE
8
Layer 1
10
116.398422
20
36.260075
11
116.202051
21
35.946917
0
LINE
8
Layer 1
10
116.202051
20
35.946917
11
112.030220
21
35.249802
0
LINE
8
Layer 1
10
112.030220
20
35.249802
11
112.913369
21
39.273324
0
LINE
8
Layer 1
10
112.913369
20
39.273324
11
112.921118
21
39.308466
0
LINE
8
Layer 1
10
112.921118
20
39.308466
11
113.229627
21
39.439207
0
LINE
8
Layer 1
10
113.229627
20
39.439207
11
112.454997
21
39.671749
0
LINE
8
Layer 1
10
112.454997
20
39.671749
11
112.454997
21
39.671749
0
LINE
8
Layer 1
10
114.492080
20
38.701785
11
114.234733
21
38.633054
0
LINE
8
Layer 1
10
114.234733
20
38.633054
11
113.902454
21
37.270864
0
LINE
8
Layer 1
10
113.902454
20
37.270864
11
114.074536
21
37.084831
0
LINE
8
Layer 1
10
114.074536
20
37.084831
11
115.481165
21
37.317891
0
LINE
8
Layer 1
10
115.481165
20
37.317891
11
115.566432
21
37.572656
0
LINE
8
Layer 1
10
115.566432
20
37.572656
11
114.492080
21
38.701785
0
LINE
8
Layer 1
10
114.492080
20
38.701785
11
114.492080
21
38.701785
0
LINE
8
Layer 1
10
114.463658
20
38.290956
11
115.148886
21
37.570589
0
LINE
8
Layer 1
10
115.148886
20
37.570589
11
114.251786
21
37.422277
0
LINE
8
Layer 1
10
114.251786
20
37.422277
11
114.463658
21
38.290956
0
LINE
8
Layer 1
10
114.463658
20
38.290956
11
114.463658
21
38.290956
0
LINE
8
Layer 1
10
14.070953
20
37.751972
11
13.827558
21
37.076563
0
LINE
8
Layer 1
10
13.827558
20
37.076563
11
14.066302
21
37.219189
0
LINE
8
Layer 1
10
14.066302
20
37.219189
11
14.106093
21
37.207820
0
LINE
8
Layer 1
10
14.106093
20
37.207820
11
16.274950
21
36.570135
0
LINE
8
Layer 1
10
16.274950
20
36.570135
11
14.422353
21
35.957252
0
LINE
8
Layer 1
10
14.422353
20
35.957252
11
14.334503
21
35.928315
0
LINE
8
Layer 1
10
14.334503
20
35.928315
11
14.093174
21
36.013063
0
LINE
8
Layer 1
10
14.093174
20
36.013063
11
14.414601
21
35.381578
0
LINE
8
Layer 1
10
14.414601
20
35.381578
11
14.463694
21
35.651844
0
LINE
8
Layer 1
10
14.463694
20
35.651844
11
14.517437
21
35.669415
0
LINE
8
Layer 1
10
14.517437
20
35.669415
11
18.704773
21
37.053824
0
LINE
8
Layer 1
10
18.704773
20
37.053824
11
18.738879
21
37.065193
0
LINE
8
Layer 1
10
18.738879
20
37.065193
11
18.956437
21
36.965975
0
LINE
8
Layer 1
10
18.956437
20
36.965975
11
18.690820
21
37.607795
0
LINE
8
Layer 1
10
18.690820
20
37.607795
11
18.621574
21
37.346313
0
LINE
8
Layer 1
10
18.621574
20
37.346313
11
18.609688
21
37.342180
0
LINE
8
Layer 1
10
18.609688
20
37.342180
11
16.781379
21
36.737566
0
LINE
8
Layer 1
10
16.781379
20
36.737566
11
16.717300
21
36.756168
0
LINE
8
Layer 1
10
16.717300
20
36.756168
11
14.191359
21
37.499276
0
LINE
8
Layer 1
10
14.191359
20
37.499276
11
14.148985
21
37.511161
0
LINE
8
Layer 1
10
14.148985
20
37.511161
11
14.070953
21
37.751972
0
LINE
8
Layer 1
10
14.070953
20
37.751972
11
14.070953
21
37.751972
0
LINE
8
Layer 1
10
18.594702
20
31.235067
11
18.395231
21
30.526067
0
LINE
8
Layer 1
10
18.395231
20
30.526067
11
18.666532
21
30.694014
0
LINE
8
Layer 1
10
18.666532
20
30.694014
11
18.752315
21
30.695048
0
LINE
8
Layer 1
10
18.752315
20
30.695048
11
20.007017
21
30.717270
0
LINE
8
Layer 1
10
20.007017
20
30.717270
11
20.627133
21
30.473357
0
LINE
8
Layer 1
10
20.627133
20
30.473357
11
20.938742
21
30.168983
0
LINE
8
Layer 1
10
20.938742
20
30.168983
11
19.754837
21
27.779468
0
LINE
8
Layer 1
10
19.754837
20
27.779468
11
19.912450
21
27.562428
0
LINE
8
Layer 1
10
19.912450
20
27.562428
11
23.612995
21
28.105029
0
LINE
8
Layer 1
10
23.612995
20
28.105029
11
23.741667
21
28.274526
0
LINE
8
Layer 1
10
23.741667
20
28.274526
11
23.464167
21
30.478524
0
LINE
8
Layer 1
10
23.464167
20
30.478524
11
23.292601
21
30.609784
0
LINE
8
Layer 1
10
23.292601
20
30.609784
11
21.217794
21
30.320912
0
LINE
8
Layer 1
10
21.217794
20
30.320912
11
20.816786
21
30.712101
0
LINE
8
Layer 1
10
20.816786
20
30.712101
11
20.766143
21
30.744657
0
LINE
8
Layer 1
10
20.766143
20
30.744657
11
20.090216
21
31.010275
0
LINE
8
Layer 1
10
20.090216
20
31.010275
11
20.032339
21
31.021126
0
LINE
8
Layer 1
10
20.032339
20
31.021126
11
18.747147
21
30.998390
0
LINE
8
Layer 1
10
18.747147
20
30.998390
11
18.744047
21
30.998390
0
LINE
8
Layer 1
10
18.744047
20
30.998390
11
18.594702
21
31.235067
0
LINE
8
Layer 1
10
18.594702
20
31.235067
11
18.594702
21
31.235067
0
LINE
8
Layer 1
10
110.153850
20
30.999422
11
110.107342
21
30.854729
0
LINE
8
Layer 1
10
110.107342
20
30.854729
11
110.011740
21
30.558105
0
LINE
8
Layer 1
10
110.011740
20
30.558105
11
110.006057
21
30.556555
0
LINE
8
Layer 1
10
110.006057
20
30.556555
11
106.007340
21
29.593309
0
LINE
8
Layer 1
10
106.007340
20
29.593309
11
105.937574
21
29.335959
0
LINE
8
Layer 1
10
105.937574
20
29.335959
11
106.968001
21
28.349975
0
LINE
8
Layer 1
10
106.968001
20
28.349975
11
107.059986
21
28.308634
0
LINE
8
Layer 1
10
107.059986
20
28.308634
11
109.419529
21
28.109681
0
LINE
8
Layer 1
10
109.419529
20
28.109681
11
109.577141
21
28.213551
0
LINE
8
Layer 1
10
109.577141
20
28.213551
11
110.396213
21
30.761710
0
LINE
8
Layer 1
10
110.396213
20
30.761710
11
110.442722
21
30.905889
0
LINE
8
Layer 1
10
110.442722
20
30.905889
11
110.153850
21
30.999422
0
LINE
8
Layer 1
10
110.153850
20
30.999422
11
110.153850
21
30.999422
0
LINE
8
Layer 1
10
23.182013
20
30.287839
11
23.421791
21
28.383048
0
LINE
8
Layer 1
10
23.421791
20
28.383048
11
20.155328
21
27.904007
0
LINE
8
Layer 1
10
20.155328
20
27.904007
11
21.198674
21
30.011887
0
LINE
8
Layer 1
10
21.198674
20
30.011887
11
23.182013
21
30.287839
0
LINE
8
Layer 1
10
23.182013
20
30.287839
11
23.182013
21
30.287839
0
LINE
8
Layer 1
10
109.903219
20
30.219627
11
109.324962
21
28.421804
0
LINE
8
Layer 1
10
109.324962
20
28.421804
11
107.138017
21
28.606290
0
LINE
8
Layer 1
10
107.138017
20
28.606290
11
106.348403
21
29.362830
0
LINE
8
Layer 1
10
106.348403
20
29.362830
11
109.903219
21
30.219627
0
LINE
8
Layer 1
10
109.903219
20
30.219627
11
109.903219
21
30.219627
0
LINE
8
Layer 1
10
28.452485
20
25.326908
11
26.170457
21
24.562096
0
LINE
8
Layer 1
10
26.170457
20
24.562096
11
26.066587
21
24.422055
0
LINE
8
Layer 1
10
26.066587
20
24.422055
11
26.045401
21
23.552858
0
LINE
8
Layer 1
10
26.045401
20
23.552858
11
25.356554
21
22.673325
0
LINE
8
Layer 1
10
25.356554
20
22.673325
11
25.324516
21
22.573591
0
LINE
8
Layer 1
10
25.324516
20
22.573591
11
25.391178
21
21.022267
0
LINE
8
Layer 1
10
25.391178
20
21.022267
11
25.466108
21
20.898243
0
LINE
8
Layer 1
10
25.466108
20
20.898243
11
25.997859
21
20.587668
0
LINE
8
Layer 1
10
25.997859
20
20.587668
11
26.129116
21
20.511704
0
LINE
8
Layer 1
10
26.129116
20
20.511704
11
26.282079
21
20.773704
0
LINE
8
Layer 1
10
26.282079
20
20.773704
11
26.150819
21
20.850185
0
LINE
8
Layer 1
10
26.150819
20
20.850185
11
25.690384
21
21.118384
0
LINE
8
Layer 1
10
25.690384
20
21.118384
11
25.630440
21
22.530699
0
LINE
8
Layer 1
10
25.630440
20
22.530699
11
26.315152
21
23.406096
0
LINE
8
Layer 1
10
26.315152
20
23.406096
11
26.347706
21
23.495499
0
LINE
8
Layer 1
10
26.347706
20
23.495499
11
26.352357
21
23.684633
0
LINE
8
Layer 1
10
26.352357
20
23.684633
11
27.991015
21
23.778684
0
LINE
8
Layer 1
10
27.991015
20
23.778684
11
28.136742
21
22.635085
0
LINE
8
Layer 1
10
28.136742
20
22.635085
11
28.028223
21
21.677522
0
LINE
8
Layer 1
10
28.028223
20
21.677522
11
28.161031
21
21.509576
0
LINE
8
Layer 1
10
28.161031
20
21.509576
11
29.202311
21
21.388135
0
LINE
8
Layer 1
10
29.202311
20
21.388135
11
29.365090
21
21.583471
0
LINE
8
Layer 1
10
29.365090
20
21.583471
11
28.630253
21
23.964202
0
LINE
8
Layer 1
10
28.630253
20
23.964202
11
28.651957
21
25.180146
0
LINE
8
Layer 1
10
28.651957
20
25.180146
11
28.452485
21
25.326908
0
LINE
8
Layer 1
10
28.452485
20
25.326908
11
28.452485
21
25.326908
0
LINE
8
Layer 1
10
28.344998
20
24.971374
11
28.328978
21
24.101661
0
LINE
8
Layer 1
10
28.328978
20
24.101661
11
26.359594
21
23.988491
0
LINE
8
Layer 1
10
26.359594
20
23.988491
11
26.367343
21
24.308366
0
LINE
8
Layer 1
10
26.367343
20
24.308366
11
28.344998
21
24.971374
0
LINE
8
Layer 1
10
28.344998
20
24.971374
11
28.344998
21
24.971374
0
LINE
8
Layer 1
10
102.086654
20
24.728495
11
101.979167
21
24.684053
0
LINE
8
Layer 1
10
101.979167
20
24.684053
11
101.369901
21
24.074790
0
LINE
8
Layer 1
10
101.369901
20
24.074790
11
101.336312
21
24.023630
0
LINE
8
Layer 1
10
101.336312
20
24.023630
11
100.859856
21
22.839208
0
LINE
8
Layer 1
10
100.859856
20
22.839208
11
100.850554
21
22.762209
0
LINE
8
Layer 1
10
100.850554
20
22.762209
11
101.049509
21
21.277547
0
LINE
8
Layer 1
10
101.049509
20
21.277547
11
101.123405
21
21.166959
0
LINE
8
Layer 1
10
101.123405
20
21.166959
11
102.418933
21
20.403185
0
LINE
8
Layer 1
10
102.418933
20
20.403185
11
102.576545
21
20.404217
0
LINE
8
Layer 1
10
102.576545
20
20.404217
11
103.728410
21
21.124586
0
LINE
8
Layer 1
10
103.728410
20
21.124586
11
103.800241
21
21.253777
0
LINE
8
Layer 1
10
103.800241
20
21.253777
11
103.800241
21
21.741086
0
LINE
8
Layer 1
10
103.800241
20
21.741086
11
103.771820
21
21.828417
0
LINE
8
Layer 1
10
103.771820
20
21.828417
11
103.257124
21
22.553438
0
LINE
8
Layer 1
10
103.257124
20
22.553438
11
103.257124
21
23.303261
0
LINE
8
Layer 1
10
103.257124
20
23.303261
11
103.238518
21
23.376124
0
LINE
8
Layer 1
10
103.238518
20
23.376124
11
102.540887
21
24.649948
0
LINE
8
Layer 1
10
102.540887
20
24.649948
11
102.407564
21
24.728495
0
LINE
8
Layer 1
10
102.407564
20
24.728495
11
102.086654
21
24.728495
0
LINE
8
Layer 1
10
102.086654
20
24.728495
11
102.086654
21
24.728495
0
LINE
8
Layer 1
10
102.149182
20
24.425156
11
102.318164
21
24.425156
0
LINE
8
Layer 1
10
102.318164
20
24.425156
11
102.954298
21
23.263470
0
LINE
8
Layer 1
10
102.954298
20
23.263470
11
102.954298
21
22.505895
0
LINE
8
Layer 1
10
102.954298
20
22.505895
11
102.982204
21
22.417529
0
LINE
8
Layer 1
10
102.982204
20
22.417529
11
103.474680
21
21.722999
0
LINE
8
Layer 1
10
103.474680
20
21.722999
11
101.333727
21
21.571070
0
LINE
8
Layer 1
10
101.333727
20
21.571070
11
101.317191
21
21.570036
0
LINE
8
Layer 1
10
101.317191
20
21.570036
11
101.156478
21
22.763244
0
LINE
8
Layer 1
10
101.156478
20
22.763244
11
101.606062
21
23.881520
0
LINE
8
Layer 1
10
101.606062
20
23.881520
11
102.149182
21
24.425156
0
LINE
8
Layer 1
10
102.149182
20
24.425156
11
102.149182
21
24.425156
0
LINE
8
Layer 1
10
28.363601
20
23.799872
11
29.006456
21
21.716281
0
LINE
8
Layer 1
10
29.006456
20
21.716281
11
28.346549
21
21.793277
0
LINE
8
Layer 1
10
28.346549
20
21.793277
11
28.440600
21
22.618033
0
LINE
8
Layer 1
10
28.440600
20
22.618033
11
28.440600
21
22.654723
0
LINE
8
Layer 1
10
28.440600
20
22.654723
11
28.294873
21
23.796253
0
LINE
8
Layer 1
10
28.294873
20
23.796253
11
28.363601
21
23.799872
0
LINE
8
Layer 1
10
28.363601
20
23.799872
11
28.363601
21
23.799872
0
LINE
8
Layer 1
10
103.496899
20
21.419141
11
103.496899
21
21.337494
0
LINE
8
Layer 1
10
103.496899
20
21.337494
11
102.494379
21
20.711175
0
LINE
8
Layer 1
10
102.494379
20
20.711175
11
101.529582
21
21.280648
0
LINE
8
Layer 1
10
101.529582
20
21.280648
11
103.496899
21
21.419141
0
LINE
8
Layer 1
10
103.496899
20
21.419141
11
103.496899
21
21.419141
0
LINE
8
Layer 1
10
36.300059
20
19.855413
11
36.310910
21
19.650258
0
LINE
8
Layer 1
10
36.310910
20
19.650258
11
36.258199
21
19.605816
0
LINE
8
Layer 1
10
36.258199
20
19.605816
11
34.142054
21
17.822466
0
LINE
8
Layer 1
10
34.142054
20
17.822466
11
34.107431
21
17.779575
0
LINE
8
Layer 1
10
34.107431
20
17.779575
11
32.910605
21
15.608134
0
LINE
8
Layer 1
10
32.910605
20
15.608134
11
32.860480
21
15.516668
0
LINE
8
Layer 1
10
32.860480
20
15.516668
11
32.611399
21
15.478943
0
LINE
8
Layer 1
10
32.611399
20
15.478943
11
33.188108
21
15.136329
0
LINE
8
Layer 1
10
33.188108
20
15.136329
11
33.117311
21
15.354404
0
LINE
8
Layer 1
10
33.117311
20
15.354404
11
33.176739
21
15.461891
0
LINE
8
Layer 1
10
33.176739
20
15.461891
11
34.359610
21
17.608008
0
LINE
8
Layer 1
10
34.359610
20
17.608008
11
36.453536
21
19.373790
0
LINE
8
Layer 1
10
36.453536
20
19.373790
11
36.493326
21
19.407379
0
LINE
8
Layer 1
10
36.493326
20
19.407379
11
36.743958
21
19.367588
0
LINE
8
Layer 1
10
36.743958
20
19.367588
11
36.300059
21
19.855413
0
LINE
8
Layer 1
10
36.300059
20
19.855413
11
36.300059
21
19.855413
0
LINE
8
Layer 1
10
93.794146
20
19.209460
11
93.826187
21
18.924724
0
LINE
8
Layer 1
10
93.826187
20
18.924724
11
93.785878
21
18.883899
0
LINE
8
Layer 1
10
93.785878
20
18.883899
11
92.412322
21
17.488636
0
LINE
8
Layer 1
10
92.412322
20
17.488636
11
92.493969
21
17.232322
0
LINE
8
Layer 1
10
92.493969
20
17.232322
11
97.512262
21
16.346590
0
LINE
8
Layer 1
10
97.512262
20
16.346590
11
97.690028
21
16.506269
0
LINE
8
Layer 1
10
97.690028
20
16.506269
11
97.601144
21
17.790944
0
LINE
8
Layer 1
10
97.601144
20
17.790944
11
97.594426
21
17.891713
0
LINE
8
Layer 1
10
97.594426
20
17.891713
11
97.760309
21
18.057593
0
LINE
8
Layer 1
10
97.760309
20
18.057593
11
97.073528
21
18.035373
0
LINE
8
Layer 1
10
97.073528
20
18.035373
11
97.291603
21
17.868459
0
LINE
8
Layer 1
10
97.291603
20
17.868459
11
97.298839
21
17.769756
0
LINE
8
Layer 1
10
97.298839
20
17.769756
11
97.373769
21
16.678867
0
LINE
8
Layer 1
10
97.373769
20
16.678867
11
92.831416
21
17.481403
0
LINE
8
Layer 1
10
92.831416
20
17.481403
11
94.002918
21
18.670992
0
LINE
8
Layer 1
10
94.002918
20
18.670992
11
94.045294
21
18.713883
0
LINE
8
Layer 1
10
94.045294
20
18.713883
11
94.370339
21
18.700448
0
LINE
8
Layer 1
10
94.370339
20
18.700448
11
93.794146
21
19.209460
0
LINE
8
Layer 1
10
93.794146
20
19.209460
11
93.794146
21
19.209460
0
LINE
8
Layer 1
10
86.079382
20
14.825238
11
86.000317
21
14.803532
0
LINE
8
Layer 1
10
86.000317
20
14.803532
11
84.797808
21
14.079029
0
LINE
8
Layer 1
10
84.797808
20
14.079029
11
84.668102
21
14.000999
0
LINE
8
Layer 1
10
84.668102
20
14.000999
11
84.824679
21
13.741067
0
LINE
8
Layer 1
10
84.824679
20
13.741067
11
84.954388
21
13.819616
0
LINE
8
Layer 1
10
84.954388
20
13.819616
11
85.087712
21
13.900229
0
LINE
8
Layer 1
10
85.087712
20
13.900229
11
85.112000
21
13.869742
0
LINE
8
Layer 1
10
85.112000
20
13.869742
11
85.572954
21
13.294067
0
LINE
8
Layer 1
10
85.572954
20
13.294067
11
85.586906
21
12.532357
0
LINE
8
Layer 1
10
85.586906
20
12.532357
11
85.109418
21
12.069852
0
LINE
8
Layer 1
10
85.109418
20
12.069852
11
85.000381
21
11.963916
0
LINE
8
Layer 1
10
85.000381
20
11.963916
11
85.212254
21
11.746876
0
LINE
8
Layer 1
10
85.212254
20
11.746876
11
85.320772
21
11.851780
0
LINE
8
Layer 1
10
85.320772
20
11.851780
11
85.844771
21
12.360790
0
LINE
8
Layer 1
10
85.844771
20
12.360790
11
85.891279
21
12.471897
0
LINE
8
Layer 1
10
85.891279
20
12.471897
11
85.875262
21
13.350910
0
LINE
8
Layer 1
10
85.875262
20
13.350910
11
85.842705
21
13.442895
0
LINE
8
Layer 1
10
85.842705
20
13.442895
11
85.350228
21
14.057844
0
LINE
8
Layer 1
10
85.350228
20
14.057844
11
86.120207
21
14.521380
0
LINE
8
Layer 1
10
86.120207
20
14.521380
11
87.726308
21
14.506910
0
LINE
8
Layer 1
10
87.726308
20
14.506910
11
87.882370
21
14.398908
0
LINE
8
Layer 1
10
87.882370
20
14.398908
11
87.474645
21
13.719363
0
LINE
8
Layer 1
10
87.474645
20
13.719363
11
87.453457
21
13.625828
0
LINE
8
Layer 1
10
87.453457
20
13.625828
11
87.561460
21
12.516336
0
LINE
8
Layer 1
10
87.561460
20
12.516336
11
87.575930
21
12.365442
0
LINE
8
Layer 1
10
87.575930
20
12.365442
11
87.878237
21
12.395414
0
LINE
8
Layer 1
10
87.878237
20
12.395414
11
87.863251
21
12.546311
0
LINE
8
Layer 1
10
87.863251
20
12.546311
11
87.759897
21
13.606709
0
LINE
8
Layer 1
10
87.759897
20
13.606709
11
88.132485
21
14.225791
0
LINE
8
Layer 1
10
88.132485
20
14.225791
11
89.938574
21
12.976774
0
LINE
8
Layer 1
10
89.938574
20
12.976774
11
90.063113
21
12.890475
0
LINE
8
Layer 1
10
90.063113
20
12.890475
11
90.236230
21
13.140072
0
LINE
8
Layer 1
10
90.236230
20
13.140072
11
90.111172
21
13.226371
0
LINE
8
Layer 1
10
90.111172
20
13.226371
11
87.860666
21
14.783378
0
LINE
8
Layer 1
10
87.860666
20
14.783378
11
87.775917
21
14.810252
0
LINE
8
Layer 1
10
87.775917
20
14.810252
11
86.079382
21
14.825238
0
LINE
8
Layer 1
10
86.079382
20
14.825238
11
86.079382
21
14.825238
0
LINE
8
Layer 1
10
40.715804
20
14.558586
11
40.561290
21
14.354466
0
LINE
8
Layer 1
10
40.561290
20
14.354466
11
41.635643
21
11.506581
0
LINE
8
Layer 1
10
41.635643
20
11.506581
11
41.852167
21
11.428032
0
LINE
8
Layer 1
10
41.852167
20
11.428032
11
46.149574
21
13.832017
0
LINE
8
Layer 1
10
46.149574
20
13.832017
11
46.088077
21
14.115722
0
LINE
8
Layer 1
10
46.088077
20
14.115722
11
40.715804
21
14.558586
0
LINE
8
Layer 1
10
40.715804
20
14.558586
11
40.715804
21
14.558586
0
LINE
8
Layer 1
10
40.929743
20
14.237160
11
45.567179
21
13.853721
0
LINE
8
Layer 1
10
45.567179
20
13.853721
11
41.857850
21
11.778914
0
LINE
8
Layer 1
10
41.857850
20
11.778914
11
40.929743
21
14.237160
0
LINE
8
Layer 1
10
40.929743
20
14.237160
11
40.929743
21
14.237160
0
LINE
8
Layer 1
10
50.697092
20
12.970056
11
50.609242
21
12.946283
0
LINE
8
Layer 1
10
50.609242
20
12.946283
11
50.243890
21
12.714257
0
LINE
8
Layer 1
10
50.243890
20
12.714257
11
50.207200
21
12.491015
0
LINE
8
Layer 1
10
50.207200
20
12.491015
11
50.418557
21
12.228499
0
LINE
8
Layer 1
10
50.418557
20
12.228499
11
50.194281
21
11.842478
0
LINE
8
Layer 1
10
50.194281
20
11.842478
11
50.191183
21
11.695716
0
LINE
8
Layer 1
10
50.191183
20
11.695716
11
50.476435
21
11.153114
0
LINE
8
Layer 1
10
50.476435
20
11.153114
11
50.254743
21
10.690094
0
LINE
8
Layer 1
10
50.254743
20
10.690094
11
50.255778
21
10.557287
0
LINE
8
Layer 1
10
50.255778
20
10.557287
11
50.526560
21
10.016752
0
LINE
8
Layer 1
10
50.526560
20
10.016752
11
50.359129
21
9.534094
0
LINE
8
Layer 1
10
50.359129
20
9.534094
11
50.359645
21
9.433325
0
LINE
8
Layer 1
10
50.359645
20
9.433325
11
50.470233
21
9.123268
0
LINE
8
Layer 1
10
50.470233
20
9.123268
11
50.536897
21
9.042652
0
LINE
8
Layer 1
10
50.536897
20
9.042652
11
52.453055
21
7.923858
0
LINE
8
Layer 1
10
52.453055
20
7.923858
11
52.681464
21
8.046331
0
LINE
8
Layer 1
10
52.681464
20
8.046331
11
52.825125
21
10.616715
0
LINE
8
Layer 1
10
52.825125
20
10.616715
11
52.827194
21
10.655471
0
LINE
8
Layer 1
10
52.827194
20
10.655471
11
53.027697
21
10.824452
0
LINE
8
Layer 1
10
53.027697
20
10.824452
11
52.352286
21
10.824452
0
LINE
8
Layer 1
10
52.352286
20
10.824452
11
52.523852
21
10.664255
0
LINE
8
Layer 1
10
52.523852
20
10.664255
11
52.522302
21
10.633251
0
LINE
8
Layer 1
10
52.522302
20
10.633251
11
52.475277
21
9.802294
0
LINE
8
Layer 1
10
52.475277
20
9.802294
11
52.467009
21
9.801778
0
LINE
8
Layer 1
10
52.467009
20
9.801778
11
51.109987
21
9.734082
0
LINE
8
Layer 1
10
51.109987
20
9.734082
11
51.260365
21
10.496308
0
LINE
8
Layer 1
10
51.260365
20
10.496308
11
51.258815
21
10.561938
0
LINE
8
Layer 1
10
51.258815
20
10.561938
11
51.127558
21
11.088519
0
LINE
8
Layer 1
10
51.127558
20
11.088519
11
51.351315
21
11.618201
0
LINE
8
Layer 1
10
51.351315
20
11.618201
11
51.342013
21
11.755660
0
LINE
8
Layer 1
10
51.342013
20
11.755660
11
51.075363
21
12.202662
0
LINE
8
Layer 1
10
51.075363
20
12.202662
11
51.355967
21
12.724076
0
LINE
8
Layer 1
10
51.355967
20
12.724076
11
51.228843
21
12.947318
0
LINE
8
Layer 1
10
51.228843
20
12.947318
11
50.697092
21
12.970056
0
LINE
8
Layer 1
10
50.697092
20
12.970056
11
50.697092
21
12.970056
0
LINE
8
Layer 1
10
50.731715
20
12.664648
11
50.974594
21
12.654829
0
LINE
8
Layer 1
10
50.974594
20
12.654829
11
50.767889
21
12.269840
0
LINE
8
Layer 1
10
50.767889
20
12.269840
11
50.770990
21
12.119980
0
LINE
8
Layer 1
10
50.770990
20
12.119980
11
51.041775
21
11.665744
0
LINE
8
Layer 1
10
51.041775
20
11.665744
11
50.827835
21
11.159832
0
LINE
8
Layer 1
10
50.827835
20
11.159832
11
50.820599
21
11.064749
0
LINE
8
Layer 1
10
50.820599
20
11.064749
11
50.956507
21
10.522663
0
LINE
8
Layer 1
10
50.956507
20
10.522663
11
50.774607
21
9.601790
0
LINE
8
Layer 1
10
50.774607
20
9.601790
11
50.931187
21
9.420924
0
LINE
8
Layer 1
10
50.931187
20
9.420924
11
52.458222
21
9.497920
0
LINE
8
Layer 1
10
52.458222
20
9.497920
11
52.391561
21
8.311432
0
LINE
8
Layer 1
10
52.391561
20
8.311432
11
50.737401
21
9.276745
0
LINE
8
Layer 1
10
50.737401
20
9.276745
11
50.663503
21
9.485001
0
LINE
8
Layer 1
10
50.663503
20
9.485001
11
50.834035
21
9.976961
0
LINE
8
Layer 1
10
50.834035
20
9.976961
11
50.826285
21
10.094782
0
LINE
8
Layer 1
10
50.826285
20
10.094782
11
50.560667
21
10.626533
0
LINE
8
Layer 1
10
50.560667
20
10.626533
11
50.783393
21
11.091620
0
LINE
8
Layer 1
10
50.783393
20
11.091620
11
50.780808
21
11.227012
0
LINE
8
Layer 1
10
50.780808
20
11.227012
11
50.498654
21
11.762378
0
LINE
8
Layer 1
10
50.498654
20
11.762378
11
50.733265
21
12.165973
0
LINE
8
Layer 1
10
50.733265
20
12.165973
11
50.720349
21
12.337536
0
LINE
8
Layer 1
10
50.720349
20
12.337536
11
50.549814
21
12.548893
0
LINE
8
Layer 1
10
50.549814
20
12.548893
11
50.731715
21
12.664648
0
LINE
8
Layer 1
10
50.731715
20
12.664648
11
50.731715
21
12.664648
0
LINE
8
Layer 1
10
77.854573
20
12.652247
11
77.842686
21
12.500834
0
LINE
8
Layer 1
10
77.842686
20
12.500834
11
77.692826
21
10.586224
0
LINE
8
Layer 1
10
77.692826
20
10.586224
11
76.301699
21
9.269511
0
LINE
8
Layer 1
10
76.301699
20
9.269511
11
76.254672
21
9.159439
0
LINE
8
Layer 1
10
76.254672
20
9.159439
11
76.254672
21
8.280426
0
LINE
8
Layer 1
10
76.254672
20
8.280426
11
76.254672
21
8.128497
0
LINE
8
Layer 1
10
76.254672
20
8.128497
11
76.557495
21
8.128497
0
LINE
8
Layer 1
10
76.557495
20
8.128497
11
76.557495
21
8.280426
0
LINE
8
Layer 1
10
76.557495
20
8.280426
11
76.557495
21
9.093812
0
LINE
8
Layer 1
10
76.557495
20
9.093812
11
77.864392
21
10.330944
0
LINE
8
Layer 1
10
77.864392
20
10.330944
11
79.214694
21
9.811597
0
LINE
8
Layer 1
10
79.214694
20
9.811597
11
77.752254
21
8.790470
0
LINE
8
Layer 1
10
77.752254
20
8.790470
11
77.688175
21
8.669548
0
LINE
8
Layer 1
10
77.688175
20
8.669548
11
77.672154
21
7.991554
0
LINE
8
Layer 1
10
77.672154
20
7.991554
11
77.669053
21
7.839625
0
LINE
8
Layer 1
10
77.669053
20
7.839625
11
77.972395
21
7.832391
0
LINE
8
Layer 1
10
77.972395
20
7.832391
11
77.975496
21
7.984320
0
LINE
8
Layer 1
10
77.975496
20
7.984320
11
77.989447
21
8.585834
0
LINE
8
Layer 1
10
77.989447
20
8.585834
11
79.514416
21
9.651400
0
LINE
8
Layer 1
10
79.514416
20
9.651400
11
79.573328
21
9.736148
0
LINE
8
Layer 1
10
79.573328
20
9.736148
11
79.743344
21
10.352648
0
LINE
8
Layer 1
10
79.743344
20
10.352648
11
79.783651
21
10.498375
0
LINE
8
Layer 1
10
79.783651
20
10.498375
11
79.490646
21
10.579506
0
LINE
8
Layer 1
10
79.490646
20
10.579506
11
79.450856
21
10.432745
0
LINE
8
Layer 1
10
79.450856
20
10.432745
11
79.354738
21
10.082897
0
LINE
8
Layer 1
10
79.354738
20
10.082897
11
79.342853
21
10.087549
0
LINE
8
Layer 1
10
79.342853
20
10.087549
11
77.998750
21
10.604311
0
LINE
8
Layer 1
10
77.998750
20
10.604311
11
78.144993
21
12.477064
0
LINE
8
Layer 1
10
78.144993
20
12.477064
11
78.156362
21
12.627958
0
LINE
8
Layer 1
10
78.156362
20
12.627958
11
77.854573
21
12.652247
0
LINE
8
Layer 1
10
77.854573
20
12.652247
11
77.854573
21
12.652247
0
LINE
8
Layer 1
10
79.750578
20
12.344772
11
79.495298
21
12.332369
0
LINE
8
Layer 1
10
79.495298
20
12.332369
11
79.171803
21
11.762896
0
LINE
8
Layer 1
10
79.171803
20
11.762896
11
79.304094
21
11.536037
0
LINE
8
Layer 1
10
79.304094
20
11.536037
11
80.028596
21
11.536037
0
LINE
8
Layer 1
10
80.028596
20
11.536037
11
80.152620
21
11.774265
0
LINE
8
Layer 1
10
80.152620
20
11.774265
11
79.750578
21
12.344772
0
LINE
8
Layer 1
10
79.750578
20
12.344772
11
79.750578
21
12.344772
0
LINE
8
Layer 1
10
79.641025
20
11.974253
11
79.736108
21
11.839377
0
LINE
8
Layer 1
10
79.736108
20
11.839377
11
79.565060
21
11.839377
0
LINE
8
Layer 1
10
79.565060
20
11.839377
11
79.641025
21
11.974253
0
LINE
8
Layer 1
10
79.641025
20
11.974253
11
79.641025
21
11.974253
0
LINE
8
Layer 1
10
61.013762
20
11.505031
11
60.515318
21
11.298290
0
LINE
8
Layer 1
10
60.515318
20
11.298290
11
60.308379
21
10.799647
0
LINE
8
Layer 1
10
60.308379
20
10.799647
11
60.464305
21
10.357025
0
LINE
8
Layer 1
10
60.464305
20
10.357025
11
60.854600
21
10.111319
0
LINE
8
Layer 1
10
60.854600
20
10.111319
11
61.019446
21
9.102080
0
LINE
8
Layer 1
10
61.019446
20
9.102080
11
61.045285
21
9.038517
0
LINE
8
Layer 1
10
61.045285
20
9.038517
11
61.655067
21
8.185858
0
LINE
8
Layer 1
10
61.655067
20
8.185858
11
61.671084
21
8.166737
0
LINE
8
Layer 1
10
61.671084
20
8.166737
11
62.380601
21
7.457221
0
LINE
8
Layer 1
10
62.380601
20
7.457221
11
59.326530
21
7.319246
0
LINE
8
Layer 1
10
59.326530
20
7.319246
11
59.068146
21
7.600365
0
LINE
8
Layer 1
10
59.068146
20
7.600365
11
58.881078
21
7.629821
0
LINE
8
Layer 1
10
58.881078
20
7.629821
11
58.318839
21
7.308909
0
LINE
8
Layer 1
10
58.318839
20
7.308909
11
58.315738
21
7.046911
0
LINE
8
Layer 1
10
58.315738
20
7.046911
11
58.876426
21
6.708948
0
LINE
8
Layer 1
10
58.876426
20
6.708948
11
59.060396
21
6.730133
0
LINE
8
Layer 1
10
59.060396
20
6.730133
11
59.358568
21
7.017455
0
LINE
8
Layer 1
10
59.358568
20
7.017455
11
62.737685
21
7.169383
0
LINE
8
Layer 1
10
62.737685
20
7.169383
11
62.838454
21
7.428283
0
LINE
8
Layer 1
10
62.838454
20
7.428283
11
61.893810
21
8.372927
0
LINE
8
Layer 1
10
61.893810
20
8.372927
11
61.312969
21
9.186313
0
LINE
8
Layer 1
10
61.312969
20
9.186313
11
61.162074
21
10.109252
0
LINE
8
Layer 1
10
61.162074
20
10.109252
11
61.559904
21
10.353037
0
LINE
8
Layer 1
10
61.559904
20
10.353037
11
61.719143
21
10.799647
0
LINE
8
Layer 1
10
61.719143
20
10.799647
11
61.512403
21
11.298290
0
LINE
8
Layer 1
10
61.512403
20
11.298290
11
61.013762
21
11.505031
0
LINE
8
Layer 1
10
61.013762
20
11.505031
11
61.013762
21
11.505031
0
LINE
8
Layer 1
10
67.091935
20
11.296259
11
66.948793
21
11.028575
0
LINE
8
Layer 1
10
66.948793
20
11.028575
11
67.083151
21
10.957262
0
LINE
8
Layer 1
10
67.083151
20
10.957262
11
69.882460
21
9.466914
0
LINE
8
Layer 1
10
69.882460
20
9.466914
11
69.882460
21
9.429708
0
LINE
8
Layer 1
10
69.882460
20
9.429708
11
69.882460
21
6.560636
0
LINE
8
Layer 1
10
69.882460
20
6.560636
11
70.120172
21
6.435578
0
LINE
8
Layer 1
10
70.120172
20
6.435578
11
71.781565
21
7.576593
0
LINE
8
Layer 1
10
71.781565
20
7.576593
11
71.809471
21
7.802419
0
LINE
8
Layer 1
10
71.809471
20
7.802419
11
70.180632
21
9.641065
0
LINE
8
Layer 1
10
70.180632
20
9.641065
11
70.138775
21
9.674654
0
LINE
8
Layer 1
10
70.138775
20
9.674654
11
67.225261
21
11.224946
0
LINE
8
Layer 1
10
67.225261
20
11.224946
11
67.091935
21
11.296259
0
LINE
8
Layer 1
10
67.091935
20
11.296259
11
67.091935
21
11.296259
0
LINE
8
Layer 1
10
61.013762
20
11.202208
11
61.297928
21
11.083874
0
LINE
8
Layer 1
10
61.297928
20
11.083874
11
61.415804
21
10.799647
0
LINE
8
Layer 1
10
61.415804
20
10.799647
11
61.297928
21
10.515481
0
LINE
8
Layer 1
10
61.297928
20
10.515481
11
61.013762
21
10.397606
0
LINE
8
Layer 1
10
61.013762
20
10.397606
11
60.729338
21
10.515581
0
LINE
8
Layer 1
10
60.729338
20
10.515581
11
60.611205
21
10.799647
0
LINE
8
Layer 1
10
60.611205
20
10.799647
11
60.729338
21
11.083874
0
LINE
8
Layer 1
10
60.729338
20
11.083874
11
61.013762
21
11.202208
0
LINE
8
Layer 1
10
61.013762
20
11.202208
11
61.013762
21
11.202208
0
LINE
8
Layer 1
10
70.185799
20
9.177526
11
71.468408
21
7.729556
0
LINE
8
Layer 1
10
71.468408
20
7.729556
11
70.185799
21
6.848989
0
LINE
8
Layer 1
10
70.185799
20
6.848989
11
70.185799
21
9.177526
0
LINE
8
Layer 1
10
70.185799
20
9.177526
11
70.185799
21
9.177526
0
LINE
8
Layer 1
10
58.926554
20
7.306326
11
59.064529
21
7.155432
0
LINE
8
Layer 1
10
59.064529
20
7.155432
11
58.933272
21
7.028824
0
LINE
8
Layer 1
10
58.933272
20
7.028824
11
58.694010
21
7.173519
0
LINE
8
Layer 1
10
58.694010
20
7.173519
11
58.926554
21
7.306326
0
LINE
8
Layer 1
10
58.926554
20
7.306326
11
58.926554
21
7.306326
 0 
ENDSEC
 0 
EOF